<svg width="181" height="139" viewBox="0 0 181 139" fill="none" xmlns="http://www.w3.org/2000/svg">
<path fill-rule="evenodd" clip-rule="evenodd" d="M59.5 3.7242C68.9 3.6242 84.7 3.92439 93.9 5.42439C95.3 -2.87561 108 1.72425 118.1 1.02425C119.6 0.924248 120.7 -0.175752 120.8 0.024248C120.9 0.224248 121 1.5243 119.2 3.3243C116.2 6.0243 108.2 5.32425 105.1 6.52425C104.9 6.92425 104.7 7.32435 104.5 7.62435C104.2 8.02435 104 8.4243 103.7 8.8243C104.1 9.7243 104.5 10.6243 104.9 11.6243C107.5 17.3243 108.2 19.1242 107 25.2242C107.6 26.8242 108.1 28.4244 108.7 29.9244C109.2 30.8244 109.7 31.7243 110.2 32.6243C110.3 32.8243 110.5 33.0242 110.6 33.2242C111.6 34.8242 111.9 36.9242 111.5 38.7242C111 40.8242 109.6 42.3243 107 44.1243C104 46.3243 101.4 45.4242 99.4 42.5242C99.2 42.2242 98.9 41.8242 98.7 41.5242C98.2 41.4242 97.7 41.4243 97.2 41.3243C92.2 40.6243 89.8 40.4242 86.2 36.7242C85.9 36.7242 85.5 36.8243 85.2 36.8243C83.1 38.0243 75.5 41.4244 60.9 57.4244C65.7 43.3244 64.9 45.4243 65.5 38.1243C65.9 33.4243 65.9 26.7242 64.9 18.0242C70 17.9242 78 18.0244 83.2 17.9244C78.3 16.9244 68.5 14.6243 63.6 13.6243C62.3 9.82435 61.6 8.9242 59.5 3.7242Z" fill="#FDFDFD"/>
<path fill-rule="evenodd" clip-rule="evenodd" d="M62.5 131.524C62.5 131.524 62.6 131.524 62.6 131.624L62.7 131.724L62.8 131.824V131.924C62.6 132.324 62.3 132.624 62 132.824C61.7 133.124 61.4 133.324 61.1 133.424C60.8 133.624 60.5 133.724 60.2 133.824C59.9 133.924 59.6 133.924 59.3 133.924C58.8 133.924 58.3 133.824 57.8 133.624C57.4 133.424 57 133.124 56.7 132.724C56.4 132.324 56.1 131.924 56 131.424C55.8 130.924 55.7 130.324 55.7 129.824C55.7 129.324 55.8 128.924 55.9 128.424C56 127.924 56.2 127.524 56.3 127.024C56.5 126.624 56.7 126.224 57 125.824C57.3 125.424 57.6 125.124 58 124.824C58.4 124.524 58.8 124.324 59.2 124.224C59.6 124.024 60.1 124.024 60.6 124.024C60.9 124.024 61.2 124.024 61.5 124.124C61.8 124.224 62.1 124.324 62.3 124.524C62.5 124.724 62.7 124.924 62.8 125.124C62.9 125.324 63 125.624 63 125.924C63 126.324 62.9 126.724 62.6 127.124C62.3 127.424 61.9 127.724 61.4 128.024C60.9 128.224 60.3 128.424 59.6 128.624C58.9 128.724 58.1 128.824 57.3 128.924V129.024C57.3 129.624 57.4 130.124 57.5 130.624C57.6 131.124 57.8 131.524 58.1 131.824C58.4 132.124 58.7 132.424 59 132.624C59.3 132.824 59.7 132.924 60.1 132.924C60.5 132.924 60.9 132.824 61.3 132.624C61.6 132.324 62 132.024 62.5 131.524ZM114.1 119.524C114.1 125.724 109 118.824 107.1 121.824C106.3 116.424 113.5 122.824 114.1 119.524ZM97.4 128.724H97.2C96.5 130.224 95.7 131.524 94.7 132.524C93.7 133.524 92.8 134.024 92 134.024C90.7 134.024 90.1 133.224 90.1 131.624C90.1 129.824 90.8 128.124 92.2 126.424C93.7 124.624 95.5 123.824 97.6 123.824C98.5 123.824 99.4 123.824 100.3 123.924L99.6 126.624L98.7 131.124C98.6 131.824 98.5 132.324 98.5 132.524C98.5 132.924 98.7 133.124 99 133.124C99.6 133.124 100.5 132.424 101.7 131.124L101.5 131.924C100.2 133.324 98.9 134.124 97.9 134.124C97 134.124 96.6 133.624 96.6 132.724C96.6 132.424 96.7 131.924 96.8 131.124L97.4 128.724ZM98.1 125.024C97.3 124.724 96.6 124.524 95.8 124.524C94.7 124.524 93.8 125.224 93.1 126.624C92.3 128.324 91.9 129.824 91.9 131.124C91.9 132.124 92.2 132.524 92.7 132.524C93.2 132.524 94 131.924 95 130.824C96 129.724 96.9 128.424 97.6 127.024L98.1 125.024ZM104.2 133.824L106.1 133.724L106.8 130.424C108.9 126.724 110.5 124.924 111.7 124.924C112.1 124.924 112.3 125.124 112.3 125.624C112.3 125.824 112.3 126.124 112.2 126.524L111.3 131.024C111.2 131.724 111.1 132.324 111.1 132.624C111.1 133.524 111.5 134.024 112.4 134.024C113.5 134.024 114.7 133.324 116 131.824L116.2 131.024C115 132.324 114.1 133.024 113.5 133.024C113.1 133.024 113 132.824 113 132.424C113 132.224 113.1 131.724 113.2 131.024L114.1 126.524C114.2 126.024 114.3 125.524 114.3 125.224C114.3 124.124 113.8 123.524 112.8 123.524C112 123.524 111.1 124.024 110.1 124.924C109.1 125.824 108.3 127.124 107.5 128.724H107.4L107.9 126.424C108 125.724 108.1 125.224 108.1 124.824C108.1 123.924 107.7 123.424 106.8 123.424C105.7 123.424 104.5 124.124 103.2 125.624L103 126.424C104.2 125.124 105.1 124.424 105.7 124.424C106.1 124.424 106.2 124.624 106.2 125.024C106.2 125.224 106.1 125.724 106 126.424L105.1 130.924L104.2 133.824ZM125 128.724H124.8C124.1 130.224 123.3 131.524 122.3 132.524C121.3 133.524 120.4 134.024 119.6 134.024C118.3 134.024 117.7 133.224 117.7 131.624C117.7 129.824 118.4 128.124 119.8 126.424C121.3 124.624 123.1 123.824 125.2 123.824C126.1 123.824 127 123.824 127.9 123.924L127.2 126.624L126.3 131.124C126.2 131.824 126.1 132.324 126.1 132.524C126.1 132.924 126.3 133.124 126.6 133.124C127.2 133.124 128.1 132.424 129.3 131.124L129.1 131.924C127.8 133.324 126.5 134.124 125.5 134.124C124.6 134.124 124.2 133.624 124.2 132.724C124.2 132.424 124.3 131.924 124.4 131.124L125 128.724ZM125.7 125.024C124.9 124.724 124.2 124.524 123.4 124.524C122.3 124.524 121.4 125.224 120.7 126.624C119.9 128.324 119.5 129.824 119.5 131.124C119.5 132.124 119.8 132.524 120.3 132.524C120.8 132.524 121.6 131.924 122.6 130.824C123.6 129.724 124.5 128.424 125.2 127.024L125.7 125.024ZM76.3 137.724H77.9V137.324C78.2 133.424 78.4 130.424 78.5 125.624C78.5 125.424 78.5 125.324 78.5 125.224C78.5 125.124 78.4 125.024 78.4 124.924C78.3 124.824 78.3 124.724 78.2 124.724C78.1 124.724 78 124.624 77.8 124.624C77.6 124.624 77.4 124.624 77.2 124.724C77 124.724 76.7 124.824 76.3 124.924L76.2 124.424C76.7 124.224 77.1 124.124 77.5 124.024C77.8 123.924 78.1 123.824 78.4 123.824C78.6 123.724 78.8 123.724 79 123.724C79.1 123.724 79.2 123.724 79.3 123.724C79.4 123.724 79.5 123.724 79.6 123.724C79.7 123.724 79.8 123.824 79.9 123.924C80 124.024 80 124.124 80.1 124.224C80.1 124.324 80.2 124.524 80.2 124.724C80.2 124.824 80.2 124.924 80.2 125.124C80.2 125.324 80.2 125.624 80.2 125.924C80.2 126.224 80.2 126.724 80.1 127.224C80.1 127.724 80 128.324 80 129.024H80.1C80.4 128.124 80.8 127.424 81.2 126.724C81.6 126.024 82 125.524 82.4 125.024C82.8 124.624 83.2 124.224 83.6 124.024C84 123.824 84.4 123.724 84.8 123.724C85.1 123.724 85.4 123.824 85.6 123.924C85.8 124.024 86 124.224 86.2 124.424C86.4 124.624 86.5 124.824 86.6 125.124C86.7 125.324 86.8 125.624 86.9 125.924C87 126.224 87 126.424 87.1 126.724C87.1 127.024 87.2 127.224 87.2 127.524C87.2 128.124 87.1 128.824 87 129.324C86.9 129.924 86.7 130.424 86.5 130.924C86.3 131.424 86.2 131.824 85.8 132.224C85.5 132.624 85.1 132.924 84.8 133.124C84.4 133.424 83.9 133.724 83.5 133.824C83.1 133.924 82.7 134.024 82.3 134.024C81.9 134.024 81.5 133.924 81 133.824C80.6 133.624 80.2 133.224 79.9 132.924C79.7 135.024 79.6 136.324 79.5 138.024H81.4V138.924C78.3 138.924 79.5 138.924 76.4 138.924V137.724H76.3ZM61.2 126.224C61.2 126.024 61.2 125.824 61.1 125.624C61 125.424 60.9 125.324 60.8 125.124C60.7 125.024 60.5 124.924 60.4 124.824C60.2 124.724 60.1 124.724 59.9 124.724C59.6 124.724 59.3 124.824 59.1 124.924C58.9 125.024 58.7 125.124 58.5 125.324C58.3 125.524 58.2 125.724 58 125.924C57.9 126.124 57.7 126.424 57.6 126.624C57.5 126.924 57.4 127.124 57.4 127.424C57.3 127.724 57.3 127.924 57.3 128.224C57.9 128.224 58.5 128.124 59 128.024C59.5 127.924 59.9 127.824 60.3 127.624C60.6 127.424 60.9 127.224 61.1 127.024C61.1 126.824 61.2 126.524 61.2 126.224ZM68.2 131.224C68.2 131.524 68.3 131.824 68.5 132.124C68.6 132.324 68.8 132.524 69.1 132.724C69.3 132.924 69.6 133.024 69.8 133.024C70.1 133.124 70.3 133.124 70.6 133.124C70.8 133.124 71.1 133.124 71.3 133.024C71.5 132.924 71.7 132.824 71.9 132.724C72.1 132.624 72.2 132.424 72.3 132.224C72.4 132.024 72.5 131.824 72.5 131.624C72.5 131.424 72.4 131.224 72.3 131.024C72.2 130.824 72 130.724 71.9 130.524C71.7 130.424 71.5 130.224 71.3 130.124C71.1 130.024 70.8 129.824 70.5 129.724C70.3 129.624 70 129.524 69.8 129.424C69.6 129.324 69.3 129.224 69.1 129.024C68.9 128.924 68.7 128.724 68.5 128.624C68.3 128.424 68.1 128.324 68 128.124C67.9 127.924 67.7 127.724 67.7 127.524C67.6 127.324 67.6 127.024 67.6 126.724C67.6 126.424 67.7 126.124 67.8 125.924C67.9 125.624 68 125.424 68.2 125.224C68.4 125.024 68.6 124.824 68.8 124.724C69 124.524 69.3 124.424 69.6 124.324C69.9 124.224 70.2 124.124 70.4 124.124C70.7 124.124 71 124.024 71.3 124.024C71.7 124.024 72 124.024 72.3 124.124C72.6 124.224 72.9 124.324 73.1 124.424C73.3 124.524 73.5 124.724 73.7 124.924C73.8 125.124 73.9 125.324 73.9 125.624C73.9 125.724 73.9 125.824 73.9 125.924C73.9 126.024 73.8 126.124 73.7 126.224C73.6 126.324 73.5 126.424 73.4 126.524C73.3 126.624 73.1 126.624 72.9 126.624C72.7 126.624 72.5 126.624 72.3 126.524V126.424C72.4 126.324 72.4 126.124 72.4 126.024C72.4 125.924 72.4 125.824 72.4 125.724C72.4 125.524 72.3 125.324 72.2 125.224C72.1 125.124 72 124.924 71.8 124.924C71.6 124.824 71.5 124.724 71.3 124.724C71.1 124.724 70.9 124.624 70.8 124.624C70.5 124.624 70.2 124.624 70 124.724C69.8 124.824 69.5 124.924 69.4 125.024C69.2 125.124 69.1 125.324 69 125.524C68.9 125.724 68.9 125.924 68.9 126.124C68.9 126.324 69 126.624 69.1 126.824C69.2 127.024 69.4 127.224 69.6 127.324C69.8 127.524 70.1 127.624 70.3 127.824C70.6 127.924 70.9 128.124 71.2 128.224C71.5 128.424 71.9 128.524 72.2 128.724C72.5 128.924 72.8 129.124 73.1 129.324C73.4 129.524 73.6 129.824 73.7 130.024C73.9 130.324 73.9 130.624 73.9 131.024C73.9 131.524 73.8 131.924 73.6 132.224C73.4 132.624 73.1 132.924 72.8 133.124C72.5 133.324 72.1 133.524 71.6 133.724C71.2 133.824 70.7 133.924 70.2 133.924C70 133.924 69.7 133.924 69.5 133.824C69.3 133.824 69 133.724 68.8 133.624C68.6 133.524 68.3 133.424 68.1 133.324C67.9 133.224 67.7 133.124 67.5 132.924C67.3 132.824 67.2 132.624 67.1 132.424C67 132.224 67 132.124 67 131.924C67 131.724 67 131.624 67.1 131.524C67.2 131.424 67.3 131.324 67.4 131.224C67.5 131.124 67.7 131.124 67.8 131.024C67.9 131.224 68 131.224 68.2 131.224ZM79.7 131.824C80.1 132.124 80.5 132.424 80.8 132.524C81.2 132.724 81.6 132.724 81.9 132.724C82.4 132.724 82.9 132.624 83.3 132.424C83.7 132.224 84.1 131.924 84.4 131.524C84.7 131.124 84.9 130.624 85.1 130.024C85.3 129.424 85.4 128.724 85.4 127.924C85.4 127.624 85.4 127.324 85.3 127.024C85.3 126.724 85.2 126.424 85.1 126.124C85 125.824 84.9 125.624 84.7 125.524C84.5 125.324 84.3 125.224 84.1 125.224C83.8 125.224 83.6 125.324 83.3 125.424C83 125.524 82.8 125.724 82.5 126.024C82.3 126.224 82 126.524 81.8 126.824C81.6 127.124 81.4 127.524 81.2 127.824C81 128.224 80.8 128.524 80.6 128.924C80.4 129.324 80.3 129.724 80.2 130.024C80.1 130.424 80 130.724 79.9 131.024C79.8 131.324 79.7 131.624 79.7 131.824ZM9.5 73.5242V100.624H16.3C17.6 100.624 18.7 100.524 19.4 100.324C22.9 99.4242 23 94.4243 23.6 92.1243H24.7L24.9 101.724H0V100.624H4.20001V73.5242H0V72.4243H14V73.5242H9.5ZM39.8 73.5242V86.1243H42.5C43.5 86.1243 44.3 86.0242 45 85.8242C45.7 85.6242 46.3 85.1242 46.8 84.3242C47.3 83.5242 47.6 82.2242 47.7 80.5242H48.9V92.9243H47.7C47.6 90.5243 47.1 89.0241 46.3 88.2241C45.5 87.4241 44.2 87.1243 42.5 87.1243H39.8V100.524H46C49.5 100.524 50.8 99.8243 52.2 98.4243C53.6 97.0243 54.1 94.8242 54.4 91.8242H55.6L55.5 101.624H30.3V100.524H34.5V73.4243H30.3V72.3242H55.5V80.1243H54.3C53.9 77.7243 53.6 76.0242 52.4 75.0242C51.2 73.9242 49.1 73.4243 46.3 73.4243H39.8V73.5242ZM67.3 100.624V73.5242H63.1V72.4243H76.6C78.8 72.4243 80.6 72.6242 82 73.0242C83.4 73.4242 84.6 74.1242 85.6 75.3242C86.6 76.4242 87.1 77.8241 87.1 79.2241C87.1 81.1241 86.4 82.6241 84.9 83.7241C83.4 84.8241 80.9 85.7242 77.4 86.3242V86.4243C79.9 86.9243 82 87.8241 83.6 89.2241C85.2 90.6241 86 92.9241 86 96.2241C86 98.1241 86.2 99.3242 86.7 99.8242C87.2 100.324 87.1 100.524 87.9 100.524C88.4 100.524 89.4 99.8241 89.5 98.7241L90.4 99.0242C90.2 100.024 89.7 101.624 86.7 101.924C84.2 102.224 82.5 101.224 81.4 99.9243C80.4 98.6243 79.9 97.3242 79.9 96.0242L80 92.3242C80 91.0242 79.6 89.7242 78.7 88.5242C77.8 87.2242 75.9 86.6243 72.9 86.6243H72.6V100.524H76.3V101.624H63.1V100.524H67.3V100.624ZM72.7 73.5242V85.6243H74.2C76 85.6243 77.3 85.5242 78.2 85.3242C79.1 85.1242 79.9 84.5242 80.4 83.5242C81 82.5242 81.2 81.0243 81.2 78.9243C81.2 77.2243 80.9 75.9241 80.4 75.2241C79.8 74.4241 79.2 73.9241 78.4 73.7241C77.6 73.5241 76.6 73.4243 75.3 73.4243H72.7V73.5242ZM101.8 100.624V73.5242H97.5V72.4243H111.6V73.5242H107.2V100.624H111.6V101.724H97.5V100.624H101.8ZM121.4 100.624V73.5242H117.3V72.4243H131C134.2 72.4243 136.9 72.8241 139.1 73.7241C141.4 74.6241 143.2 76.3242 144.8 78.8242C146.3 81.3242 147.1 84.1242 147.1 87.0242C147.1 90.1242 146.3 92.9243 144.6 95.4243C142.9 97.9243 141 99.5243 138.9 100.424C136.7 101.324 134.1 101.724 131 101.724H117.3V100.624H121.4ZM126.8 73.5242V100.624H130.7C132.8 100.624 134.5 100.424 135.8 100.024C137.1 99.6242 138.2 98.8243 139 97.6243C139.9 96.4243 140.4 94.8243 140.7 92.9243C141 91.0243 141.1 88.6242 141.1 85.5242C141.1 81.8242 140.6 79.1242 139.7 77.3242C138.7 75.5242 137.6 74.4242 136.2 74.0242C134.8 73.6242 133 73.4243 130.8 73.4243H126.8V73.5242ZM169.1 92.6243H159.4L156.3 100.624H161.1V101.724H151.5V100.624H155.1L166.2 71.7241H166.9L177.5 100.624H181V101.724H167.9V100.624H172L169.1 92.6243ZM159.9 91.5242H168.7L164.4 79.8242H164.3L159.9 91.5242Z" fill="#FDFDFD"/>
</svg>