<svg width="311" height="239" viewBox="0 0 311 239" fill="none" xmlns="http://www.w3.org/2000/svg">
<path fill-rule="evenodd" clip-rule="evenodd" d="M102.3 7.0997C118.4 6.9997 145.5 7.39972 161.4 9.99972C163.8 -4.30028 185.5 3.69975 202.9 2.39975C205.4 2.29975 207.4 0.399698 207.5 0.599698C207.7 0.899698 207.9 3.19977 204.7 6.29977C199.6 10.9998 185.9 9.69977 180.5 11.7998C180.1 12.4998 179.8 13.0998 179.4 13.7998C179 14.4998 178.5 15.1998 178.1 15.7998C178.8 17.3998 179.4 18.9997 180.1 20.4997C184.6 30.2997 185.7 33.3998 183.8 43.7998C184.8 46.4998 185.7 49.1997 186.7 51.8997C187.5 53.3997 188.4 54.9997 189.2 56.4997C189.4 56.8997 189.7 57.1997 189.9 57.5997C191.7 60.2997 192.1 63.8997 191.4 66.9997C190.5 70.5997 188.2 73.0998 183.7 76.2998C178.5 80.0998 174.1 78.5997 170.6 73.4997C170.2 72.8997 169.8 72.2997 169.4 71.6997C168.5 71.5997 167.7 71.4997 166.8 71.3997C158.2 70.1997 154.2 69.8997 147.9 63.3997C147.3 63.4997 146.8 63.4997 146.2 63.5997C142.7 65.5997 129.6 71.4997 104.5 98.9997C112.7 74.8997 111.3 78.2997 112.4 65.9997C113.1 57.8997 113 46.4997 111.3 31.5997C120.1 31.3997 133.8 31.5997 142.6 31.3997C134.3 29.5997 117.3 25.6997 109 23.8997C107.1 17.5997 106 15.9997 102.3 7.0997Z" fill="#C48C55"/>
<path fill-rule="evenodd" clip-rule="evenodd" d="M107.8 226.6C107.7 226.6 107.7 226.5 107.6 226.5C107.5 226.5 107.5 226.4 107.4 226.4C106.7 227.2 105.9 227.7 105.2 228.1C104.5 228.4 103.8 228.6 103.1 228.6C102.4 228.6 101.8 228.4 101.2 228.1C100.6 227.8 100.1 227.3 99.7 226.8C99.3 226.2 98.9 225.5 98.7 224.7C98.5 223.9 98.3 223 98.3 222V221.8C99.7 221.7 101 221.5 102.2 221.2C103.4 221 104.5 220.6 105.4 220.2C106.3 219.8 107 219.3 107.5 218.7C108 218.1 108.3 217.4 108.3 216.7C108.3 216.2 108.2 215.7 108 215.3C107.8 214.9 107.5 214.5 107.1 214.2C106.7 213.9 106.3 213.7 105.8 213.5C105.3 213.3 104.8 213.3 104.2 213.3C103.4 213.3 102.5 213.4 101.8 213.7C101.1 214 100.4 214.3 99.8 214.8C99.2 215.3 98.6 215.8 98.1 216.5C97.6 217.1 97.2 217.8 96.9 218.6C96.6 219.3 96.3 220.1 96.1 220.9C95.9 221.7 95.8 222.5 95.8 223.3C95.8 224.3 96 225.2 96.3 226.1C96.6 227 97 227.7 97.6 228.4C98.1 229.1 98.8 229.6 99.6 229.9C100.4 230.3 101.2 230.5 102.1 230.5C102.6 230.5 103.2 230.4 103.7 230.3C104.2 230.2 104.8 229.9 105.3 229.6C105.8 229.3 106.3 228.9 106.8 228.5C107.3 228.1 107.8 227.5 108.2 226.9C108.2 226.9 108.2 226.9 108.2 226.8C108.2 226.7 108.2 226.7 108.1 226.6C107.9 226.7 107.8 226.7 107.8 226.6ZM98.6 219.4C98.7 218.9 98.8 218.5 99 218C99.2 217.6 99.4 217.1 99.6 216.7C99.8 216.3 100.1 216 100.4 215.7C100.7 215.4 101.1 215.2 101.5 215C101.9 214.8 102.3 214.7 102.8 214.7C103.1 214.7 103.4 214.8 103.7 214.9C104 215 104.2 215.2 104.4 215.4C104.6 215.6 104.8 215.9 104.9 216.2C105 216.5 105.1 216.8 105.1 217.2C105.1 217.7 104.9 218.2 104.6 218.6C104.3 219 103.8 219.4 103.3 219.6C102.7 219.9 102 220.1 101.1 220.3C100.2 220.5 99.3 220.6 98.2 220.7C98.4 220.3 98.5 219.9 98.6 219.4Z" fill="#C48C55"/>
<path fill-rule="evenodd" clip-rule="evenodd" d="M196 205.8C196 216.4 187.2 204.699 183.9 209.699C182.6 200.399 194.9 211.4 196 205.8Z" fill="#C48C55"/>
<path fill-rule="evenodd" clip-rule="evenodd" d="M170.2 228.699C169.6 228.699 169.3 228.399 169.3 227.699C169.3 227.299 169.4 226.599 169.7 225.399L171.2 217.599L172.3 212.899C170.7 212.799 169.1 212.699 167.6 212.699C164 212.699 160.9 214.199 158.4 217.199C156 220.099 154.7 223.099 154.7 226.099C154.7 228.899 155.8 230.299 158 230.299C159.5 230.299 161 229.499 162.7 227.799C164.4 226.099 165.8 223.999 167 221.399H167.3L166.5 225.299C166.2 226.599 166.1 227.499 166.1 227.999C166.1 229.599 166.9 230.399 168.4 230.399C170.2 230.399 172.3 229.199 174.6 226.699L174.9 225.199C172.8 227.599 171.2 228.699 170.2 228.699ZM167.8 218.799C166.5 221.199 165 223.399 163.3 225.299C161.6 227.199 160.3 228.099 159.4 228.099C158.4 228.099 157.9 227.299 157.9 225.599C157.9 223.299 158.6 220.699 159.9 217.899C161 215.499 162.6 214.299 164.5 214.299C165.8 214.299 167.1 214.599 168.4 215.199L167.8 218.799Z" fill="#C48C55"/>
<path fill-rule="evenodd" clip-rule="evenodd" d="M178.9 230.3L182.2 230.1L183.4 224.5C187 218.2 189.7 215 191.7 215C192.3 215 192.6 215.4 192.6 216.3C192.6 216.7 192.5 217.2 192.4 217.8L190.8 225.5C190.5 226.8 190.4 227.6 190.4 228.2C190.4 229.8 191.2 230.6 192.7 230.6C194.5 230.6 196.6 229.4 198.9 226.9L199.2 225.4C197.1 227.7 195.5 228.8 194.5 228.8C193.9 228.8 193.6 228.5 193.6 227.8C193.6 227.4 193.7 226.7 194 225.4L195.5 217.7C195.7 216.8 195.8 216.1 195.8 215.4C195.8 213.5 194.9 212.5 193.2 212.5C191.8 212.5 190.2 213.3 188.6 214.9C187 216.5 185.5 218.7 184.2 221.3H184L184.8 217.4C185 216.2 185.2 215.3 185.2 214.7C185.2 213.1 184.4 212.3 182.9 212.3C181.1 212.3 179 213.5 176.7 216L176.4 217.4C178.5 215.1 180 214 181.1 214C181.7 214 182 214.3 182 215C182 215.4 181.9 216.2 181.6 217.4L180.1 225.1L178.9 230.3Z" fill="#C48C55"/>
<path fill-rule="evenodd" clip-rule="evenodd" d="M217.5 228.699C216.9 228.699 216.6 228.399 216.6 227.699C216.6 227.299 216.7 226.599 217 225.399L218.5 217.599L219.6 212.899C218 212.799 216.4 212.699 214.9 212.699C211.3 212.699 208.2 214.199 205.7 217.199C203.3 220.099 202 223.099 202 226.099C202 228.899 203.1 230.299 205.3 230.299C206.8 230.299 208.3 229.499 210 227.799C211.7 226.099 213.1 223.999 214.3 221.399H214.6L213.8 225.299C213.6 226.599 213.4 227.499 213.4 227.999C213.4 229.599 214.2 230.399 215.7 230.399C217.5 230.399 219.6 229.199 221.9 226.699L222.2 225.199C220.2 227.599 218.6 228.699 217.5 228.699ZM215.1 218.799C213.8 221.199 212.3 223.399 210.7 225.299C209 227.199 207.7 228.099 206.8 228.099C205.8 228.099 205.4 227.299 205.4 225.599C205.4 223.299 206.1 220.699 207.4 217.899C208.5 215.499 210.1 214.299 212 214.299C213.3 214.299 214.6 214.599 215.9 215.199L215.1 218.799Z" fill="#C48C55"/>
<path fill-rule="evenodd" clip-rule="evenodd" d="M149.4 217.599C149.4 217.099 149.3 216.699 149.1 216.199C149 215.699 148.8 215.299 148.6 214.899C148.4 214.499 148.1 214.099 147.9 213.799C147.6 213.499 147.3 213.199 146.9 212.999C146.5 212.799 146.1 212.699 145.5 212.699C144.9 212.699 144.2 212.899 143.5 213.299C142.8 213.699 142.1 214.299 141.4 215.099C140.7 215.899 140 216.799 139.3 217.999C138.6 219.099 138 220.399 137.4 221.899H137.3C137.4 220.699 137.4 219.699 137.5 218.899C137.5 218.099 137.6 217.299 137.6 216.699C137.6 216.099 137.6 215.599 137.7 215.299C137.7 214.999 137.7 214.699 137.7 214.599C137.7 214.299 137.7 213.999 137.6 213.799C137.5 213.599 137.4 213.399 137.3 213.199C137.2 213.099 137 212.999 136.9 212.899C136.7 212.799 136.6 212.799 136.4 212.799C136.3 212.799 136.1 212.799 135.9 212.899C135.7 212.899 135.4 212.999 134.9 213.099C134.5 213.199 134 213.299 133.4 213.499C132.8 213.699 132.1 213.899 131.2 214.099L131.4 214.899C132 214.799 132.5 214.699 132.9 214.599C133.3 214.499 133.6 214.499 133.9 214.499C134.2 214.499 134.4 214.499 134.6 214.599C134.8 214.699 134.9 214.799 135 214.899C135.1 214.999 135.2 215.199 135.2 215.399C135.2 215.599 135.3 215.899 135.2 216.199C134.9 224.399 134.6 229.499 134.1 236.199V236.899H131.3V238.499C136.6 238.499 134.5 238.499 139.9 238.499V236.899H136.6C136.7 233.999 136.9 231.799 137.2 228.099C137.8 228.699 138.5 229.399 139.2 229.699C139.9 229.999 140.6 230.099 141.4 230.099C142.1 230.099 142.8 229.999 143.5 229.799C144.2 229.599 145.1 228.999 145.7 228.499C146.3 228.099 146.9 227.499 147.5 226.899C148 226.299 148.2 225.499 148.6 224.699C149 223.899 149.3 222.999 149.5 221.999C149.7 220.999 149.8 219.999 149.8 218.899C149.5 218.499 149.5 218.099 149.4 217.599ZM146.3 223.699C146 224.699 145.6 225.599 145.1 226.399C144.6 227.099 144 227.699 143.2 227.999C142.5 228.399 141.7 228.499 140.9 228.499C140.2 228.499 139.6 228.399 139 228.099C138.4 227.799 137.7 227.399 137.1 226.899C137.1 226.499 137.2 225.999 137.4 225.399C137.5 224.899 137.7 224.299 137.9 223.699C138.1 223.099 138.4 222.499 138.7 221.799C139 221.199 139.3 220.499 139.7 219.899C140 219.299 140.4 218.699 140.8 218.199C141.2 217.599 141.6 217.199 142 216.799C142.4 216.399 142.9 216.099 143.3 215.799C143.8 215.599 144.2 215.399 144.7 215.399C145.1 215.399 145.4 215.499 145.7 215.799C146 216.099 146.2 216.499 146.4 216.899C146.6 217.299 146.7 217.899 146.8 218.399C146.9 218.899 146.9 219.499 146.9 219.999C146.7 221.399 146.6 222.699 146.3 223.699Z" fill="#C48C55"/>
<path fill-rule="evenodd" clip-rule="evenodd" d="M117.3 225.799C117.3 226.399 117.5 226.899 117.8 227.299C118.1 227.699 118.4 228.099 118.7 228.299C119.1 228.599 119.5 228.799 119.9 228.899C120.4 228.999 120.8 229.099 121.2 229.099C121.6 229.099 122 228.999 122.4 228.899C122.8 228.799 123.1 228.599 123.4 228.399C123.7 228.199 123.9 227.899 124.1 227.599C124.3 227.299 124.4 226.899 124.4 226.599C124.4 226.199 124.3 225.799 124.1 225.499C123.9 225.199 123.7 224.899 123.3 224.699C123 224.499 122.6 224.199 122.2 223.999C121.8 223.799 121.3 223.599 120.9 223.299C120.5 223.099 120.1 222.899 119.7 222.699C119.3 222.499 118.9 222.299 118.5 222.099C118.1 221.899 117.8 221.599 117.4 221.399C117.1 221.099 116.8 220.799 116.5 220.499C116.3 220.199 116.1 219.799 115.9 219.399C115.8 218.999 115.7 218.599 115.7 218.099C115.7 217.599 115.8 217.099 116 216.699C116.2 216.299 116.4 215.899 116.7 215.499C117 215.199 117.4 214.799 117.8 214.599C118.2 214.299 118.7 214.099 119.1 213.899C119.6 213.699 120.1 213.599 120.6 213.499C121.1 213.399 121.6 213.399 122.1 213.399C122.7 213.399 123.3 213.499 123.8 213.599C124.3 213.699 124.8 213.899 125.2 214.199C125.6 214.499 125.9 214.799 126.2 215.099C126.4 215.499 126.6 215.899 126.6 216.299C126.6 216.499 126.6 216.699 126.5 216.899C126.4 217.099 126.3 217.299 126.2 217.499C126.1 217.699 125.9 217.799 125.6 217.999C125.4 218.099 125.1 218.199 124.7 218.199C124.4 218.199 124 218.199 123.7 218.099V217.999C123.8 217.799 123.9 217.499 123.9 217.299C123.9 217.099 124 216.899 124 216.699C124 216.299 123.9 216.099 123.7 215.799C123.5 215.599 123.3 215.399 123.1 215.199C122.8 214.999 122.6 214.899 122.2 214.899C121.9 214.799 121.6 214.799 121.3 214.799C120.8 214.799 120.3 214.899 119.9 214.999C119.5 215.099 119.1 215.299 118.8 215.599C118.5 215.799 118.3 216.099 118.1 216.399C117.9 216.699 117.9 216.999 117.9 217.399C117.9 217.799 118 218.199 118.2 218.499C118.4 218.799 118.7 219.099 119.1 219.399C119.5 219.699 119.9 219.899 120.4 220.199C120.9 220.399 121.4 220.699 121.9 220.899C122.5 221.199 123.1 221.499 123.6 221.699C124.2 221.999 124.7 222.299 125.1 222.699C125.6 223.099 125.9 223.499 126.2 223.999C126.5 224.499 126.6 225.099 126.6 225.699C126.6 226.499 126.4 227.199 126.1 227.799C125.8 228.399 125.3 228.899 124.7 229.299C124.1 229.699 123.5 229.999 122.7 230.299C122 230.499 121.2 230.599 120.4 230.599C120 230.599 119.6 230.599 119.1 230.499C118.7 230.399 118.3 230.299 117.9 230.199C117.5 230.099 117.1 229.899 116.8 229.699C116.4 229.499 116.1 229.299 115.9 229.099C115.6 228.899 115.4 228.599 115.3 228.299C115.1 227.999 115.1 227.699 115.1 227.399C115.1 227.099 115.2 226.899 115.3 226.699C115.4 226.499 115.6 226.299 115.8 226.199C116 226.099 116.2 225.999 116.5 225.899C116.6 225.799 116.9 225.799 117.3 225.799Z" fill="#C48C55"/>
<path fill-rule="evenodd" clip-rule="evenodd" d="M16.5 126.9V173.4H28.2C30.5 173.4 32.2 173.2 33.5 172.9C39.6 171.4 39.7 162.8 40.7 158.9H42.5L42.8 175.3H0V173.4H7.10004V126.9H0V125H24V126.9H16.5Z" fill="#C48C55"/>
<path fill-rule="evenodd" clip-rule="evenodd" d="M68.4 126.899V148.499H73.1C74.8 148.499 76.2 148.299 77.3 147.999C78.5 147.699 79.5 146.799 80.4 145.499C81.3 144.099 81.8 141.999 82 138.999H84V160.299H82C81.8 156.299 81 153.599 79.6 152.299C78.2 150.999 76 150.399 73.1 150.399H68.4V173.399H79C85 173.399 87.3 172.199 89.6 169.699C91.9 167.299 92.9 163.499 93.3 158.399H95.3L95.2 175.199H51.9V173.299H59.1V126.799H51.9V124.899H95.2L95.3 138.299H93.3C92.6 134.199 92.1 131.299 90 129.499C87.9 127.699 84.4 126.799 79.5 126.799H68.4V126.899Z" fill="#C48C55"/>
<path fill-rule="evenodd" clip-rule="evenodd" d="M153.8 170.3C153.7 172.1 152 173.3 151.1 173.3C149.7 173.3 149.8 173 149.1 172.1C148.3 171.2 147.9 169.1 147.9 165.9C147.9 160.2 146.5 156.2 143.7 153.8C140.9 151.4 137.3 149.8 133 149V148.8C139.1 147.8 143.4 146.3 145.9 144.3C148.4 142.3 149.7 139.8 149.7 136.6C149.7 134 148.8 131.8 147.1 129.8C145.4 127.8 143.3 126.5 140.9 125.9C138.5 125.3 135.4 125 131.7 125H108.6V126.9H115.7V173.4H108.6V175.3H131.3V173.4H125V149.5H125.5C130.7 149.5 134 150.6 135.5 152.8C137 155 137.7 157.2 137.7 159.4L137.5 165.8C137.5 168 138.3 170.3 140.1 172.5C141.9 174.8 144.9 176.4 149.1 176C154.2 175.5 155.1 172.6 155.5 171L153.8 170.3ZM124.9 147.7V126.9H129.4C131.6 126.9 133.4 127.1 134.8 127.4C136.1 127.7 137.3 128.6 138.3 129.9C139.3 131.2 139.7 133.4 139.7 136.3C139.7 139.9 139.2 142.5 138.3 144.1C137.3 145.7 136.1 146.8 134.5 147.1C132.9 147.5 130.6 147.7 127.6 147.7H124.9Z" fill="#C48C55"/>
<path fill-rule="evenodd" clip-rule="evenodd" d="M174.8 173.4V126.9H167.3V125H191.5V126.9H184V173.4H191.5V175.3H167.3V173.4H174.8Z" fill="#C48C55"/>
<path fill-rule="evenodd" clip-rule="evenodd" d="M248.6 135.9C246 131.6 242.8 128.7 238.9 127.2C235 125.7 230.4 125 224.9 125H201.4V126.9H208.4V173.4H201.4V175.3H224.8C230.2 175.3 234.7 174.6 238.4 173.1C242.1 171.6 245.4 168.7 248.3 164.5C251.1 160.3 252.6 155.5 252.6 150.1C252.5 145 251.2 140.3 248.6 135.9ZM241.7 160.3C241.2 163.5 240.2 166.2 238.7 168.3C237.2 170.4 235.4 171.8 233.1 172.4C230.9 173 228 173.4 224.4 173.4H217.6V126.9H224.5C228.3 126.9 231.4 127.3 233.8 128C236.2 128.7 238.2 130.6 239.8 133.7C241.5 136.8 242.3 141.4 242.3 147.7C242.4 152.9 242.2 157.1 241.7 160.3Z" fill="#C48C55"/>
<path fill-rule="evenodd" clip-rule="evenodd" d="M304.7 173.4L286.5 123.8H285.3L266.3 173.4H260.2V175.3H276.7V173.4H268.4L273.7 159.6H290.3L295.4 173.4H288.3V175.3H310.7V173.4H304.7ZM274.4 157.7L282 137.6H282.2L289.6 157.7H274.4Z" fill="#C48C55"/>
</svg>