<svg width="96" height="75" viewBox="0 0 96 75" fill="none" xmlns="http://www.w3.org/2000/svg">
<path d="M0.00990722 46.6499V15.19C0.00990722 11.68 2.87992 8.79982 6.39992 8.79982H90.3899L84.34 2.71975C83.7 2.07975 83.7 1.12 84.34 0.48C84.98 -0.16 85.94 -0.16 86.58 0.48L95.34 9.2798C95.98 9.9198 95.98 10.88 95.34 11.52L87.1599 19.7901C86.8399 20.1101 86.3599 20.27 86.0399 20.27C85.7199 20.27 85.2399 20.1101 84.9199 19.7901C84.2799 19.1501 84.2799 18.1898 84.9199 17.5498L90.3799 12H6.39992C4.63992 12 3.20998 13.44 3.20998 15.19V46.6499C3.20998 47.6099 2.57 48.25 1.61 48.25C0.650005 48.24 0.0199072 47.4499 0.00990722 46.6499ZM94.22 27.1699C93.26 27.1699 92.6199 27.81 92.6199 28.77V60.23C92.6199 61.99 91.18 63.4199 89.43 63.4199H5.43996L10.4199 58.0498C11.0599 57.4098 11.0599 56.4501 10.4199 55.8101C9.77994 55.1701 8.81995 55.1701 8.17995 55.8101L0.48 63.8999C-0.16 64.5399 -0.16 65.4997 0.48 66.1397L8.28994 74.3301C8.60994 74.6501 9.08993 74.8101 9.40993 74.8101C9.72993 74.8101 10.2099 74.6501 10.5299 74.3301C11.1699 73.6901 11.1699 72.7299 10.5299 72.0899L5.42995 66.46H89.4199C92.9299 66.46 95.81 63.5898 95.81 60.0698V28.77C95.82 27.97 95.18 27.1699 94.22 27.1699Z" fill="#AFAFAF"/>
<path d="M32.6465 34.4V37H21.8065V23H32.3865V25.6H25.0265V28.64H31.5265V31.16H25.0265V34.4H32.6465ZM44.4445 34H37.9445L36.7045 37H33.3845L39.6245 23H42.8245L49.0845 37H45.6845L44.4445 34ZM43.4245 31.54L41.2045 26.18L38.9845 31.54H43.4245ZM55.137 37.24C54.0303 37.24 52.957 37.0933 51.917 36.8C50.8903 36.4933 50.0636 36.1 49.437 35.62L50.537 33.18C51.137 33.62 51.8503 33.9733 52.677 34.24C53.5036 34.5067 54.3303 34.64 55.157 34.64C56.077 34.64 56.757 34.5067 57.197 34.24C57.637 33.96 57.857 33.5933 57.857 33.14C57.857 32.8067 57.7236 32.5333 57.457 32.32C57.2036 32.0933 56.8703 31.9133 56.457 31.78C56.057 31.6467 55.5103 31.5 54.817 31.34C53.7503 31.0867 52.877 30.8333 52.197 30.58C51.517 30.3267 50.9303 29.92 50.437 29.36C49.957 28.8 49.717 28.0533 49.717 27.12C49.717 26.3067 49.937 25.5733 50.377 24.92C50.817 24.2533 51.477 23.7267 52.357 23.34C53.2503 22.9533 54.337 22.76 55.617 22.76C56.5103 22.76 57.3836 22.8667 58.237 23.08C59.0903 23.2933 59.837 23.6 60.477 24L59.477 26.46C58.1836 25.7267 56.8903 25.36 55.597 25.36C54.6903 25.36 54.017 25.5067 53.577 25.8C53.1503 26.0933 52.937 26.48 52.937 26.96C52.937 27.44 53.1836 27.8 53.677 28.04C54.1836 28.2667 54.9503 28.4933 55.977 28.72C57.0436 28.9733 57.917 29.2267 58.597 29.48C59.277 29.7333 59.857 30.1333 60.337 30.68C60.8303 31.2267 61.077 31.9667 61.077 32.9C61.077 33.7 60.8503 34.4333 60.397 35.1C59.957 35.7533 59.2903 36.2733 58.397 36.66C57.5036 37.0467 56.417 37.24 55.137 37.24ZM69.7179 32.04V37H66.4779V32L61.0579 23H64.4979L68.2379 29.22L71.9779 23H75.1579L69.7179 32.04ZM27.7855 52L26.1655 49.66H26.0695H24.3775V52H22.4335V43.6H26.0695C26.8135 43.6 27.4575 43.724 28.0015 43.972C28.5535 44.22 28.9775 44.572 29.2735 45.028C29.5695 45.484 29.7175 46.024 29.7175 46.648C29.7175 47.272 29.5655 47.812 29.2615 48.268C28.9655 48.716 28.5415 49.06 27.9895 49.3L29.8735 52H27.7855ZM27.7495 46.648C27.7495 46.176 27.5975 45.816 27.2935 45.568C26.9895 45.312 26.5455 45.184 25.9615 45.184H24.3775V48.112H25.9615C26.5455 48.112 26.9895 47.984 27.2935 47.728C27.5975 47.472 27.7495 47.112 27.7495 46.648ZM37.7617 50.44V52H31.2577V43.6H37.6057V45.16H33.1897V46.984H37.0897V48.496H33.1897V50.44H37.7617ZM41.0485 45.184H38.3605V43.6H45.6805V45.184H42.9925V52H41.0485V45.184ZM50.3178 52.144C49.1178 52.144 48.1818 51.812 47.5098 51.148C46.8458 50.484 46.5138 49.536 46.5138 48.304V43.6H48.4578V48.232C48.4578 49.736 49.0818 50.488 50.3298 50.488C50.9378 50.488 51.4018 50.308 51.7218 49.948C52.0418 49.58 52.2018 49.008 52.2018 48.232V43.6H54.1218V48.304C54.1218 49.536 53.7858 50.484 53.1138 51.148C52.4498 51.812 51.5178 52.144 50.3178 52.144ZM61.3949 52L59.7749 49.66H59.6789H57.9869V52H56.0429V43.6H59.6789C60.4229 43.6 61.0669 43.724 61.6109 43.972C62.1629 44.22 62.5869 44.572 62.8829 45.028C63.1789 45.484 63.3269 46.024 63.3269 46.648C63.3269 47.272 63.1749 47.812 62.8709 48.268C62.5749 48.716 62.1509 49.06 61.5989 49.3L63.4829 52H61.3949ZM61.3589 46.648C61.3589 46.176 61.2069 45.816 60.9029 45.568C60.5989 45.312 60.1549 45.184 59.5709 45.184H57.9869V48.112H59.5709C60.1549 48.112 60.5989 47.984 60.9029 47.728C61.2069 47.472 61.3589 47.112 61.3589 46.648ZM72.5711 43.6V52H70.9751L66.7871 46.9V52H64.8671V43.6H66.4751L70.6511 48.7V43.6H72.5711Z" fill="#AFAFAF"/>
</svg>
