<?xml version="1.0" encoding="utf-8"?>
<!-- Generator: Adobe Illustrator 26.0.2, SVG Export Plug-In . SVG Version: 6.00 Build 0)  -->
<svg version="1.1" id="Layer_1" xmlns="http://www.w3.org/2000/svg" xmlns:xlink="http://www.w3.org/1999/xlink" x="0px" y="0px"
	 viewBox="0 0 46 34" style="enable-background:new 0 0 46 34;" xml:space="preserve">
<style type="text/css">
	.st0{fill:#AFAFAF;stroke:#111111;stroke-width:0.5;stroke-miterlimit:10;}
	.st1{fill:#AFAFAF;}
</style>
<path class="st1" d="M6.6,0.3c-1.2,0-2.3,0.3-3.2,0.9C2.5,1.9,1.9,3,1.8,4.4v0C1.8,5,2,6,2.5,6.9C2.8,7.5,3.1,8,3.6,8.5H2.8
	c-1.3,0-2.4,1.1-2.4,2.4v3.8c0,1.3,1.1,2.4,2.4,2.4v14.4c0,1.3,1.1,2.4,2.4,2.4h20.2c1.3,0,2.4-1.1,2.4-2.4V17.1
	c1.3,0,2.4-1.1,2.4-2.4v-3.8c0-1.3-1.1-2.4-2.4-2.4h-0.9c0.5-0.5,0.9-1,1.2-1.5C28.6,6,28.8,5,28.7,4.4v0c-0.1-1.4-0.7-2.5-1.6-3.1
	c-0.9-0.7-2-0.9-3.2-0.9c-2.1,0-4.3,0.9-6.1,2.4c-1.1,1-2.1,2.2-2.6,3.6c-0.5-1.4-1.5-2.7-2.6-3.6C10.9,1.2,8.7,0.3,6.6,0.3z
	 M6.6,1.3c1.8,0,3.9,0.8,5.4,2.1c1.5,1.3,2.6,3.1,2.7,5.1H5.4c-1-0.4-1.7-1.2-2.1-2S2.8,4.9,2.8,4.4c0,0,0,0,0,0
	C2.9,3.2,3.3,2.5,4,2C4.6,1.5,5.6,1.3,6.6,1.3z M23.9,1.3c1,0,2,0.2,2.7,0.7c0.7,0.5,1.1,1.2,1.2,2.4c0,0,0,0,0,0
	c0,0.4-0.1,1.3-0.5,2.1c-0.4,0.8-1.1,1.6-2.1,2h-9.4c0.1-2,1.2-3.8,2.7-5.1C20.1,2.1,22.1,1.3,23.9,1.3z M2.8,9.4h12v6.7h-12
	c-0.8,0-1.4-0.6-1.4-1.4v-3.8C1.3,10.1,2,9.4,2.8,9.4z M15.8,9.4h12c0.8,0,1.4,0.6,1.4,1.4v3.8c0,0.8-0.6,1.4-1.4,1.4h-12V9.4z
	 M3.7,17.1h11.1V33H5.2c-0.8,0-1.4-0.6-1.4-1.4V17.1z M15.8,17.1h11.1v14.4c0,0.8-0.6,1.4-1.4,1.4h-9.6V17.1z"/>
</svg>
