<?xml version="1.0" encoding="utf-8"?>
<!-- Generator: Adobe Illustrator 26.0.2, SVG Export Plug-In . SVG Version: 6.00 Build 0)  -->
<svg version="1.1" id="Layer_1" xmlns="http://www.w3.org/2000/svg" xmlns:xlink="http://www.w3.org/1999/xlink" x="0px" y="0px"
	 viewBox="0 0 46 34" style="enable-background:new 0 0 46 34;" xml:space="preserve">
<style type="text/css">
	.st0{fill:#AFAFAF;stroke:#111111;stroke-width:0.5;stroke-miterlimit:10;}
	.st1{fill:#AFAFAF;}
</style>
<path class="st1" d="M37.1,33.8H0.8c-0.3,0-0.5-0.2-0.5-0.5V8.9c0-0.3,0.2-0.5,0.5-0.5h36.3c0.3,0,0.5,0.2,0.5,0.5v24.4
	C37.6,33.6,37.4,33.8,37.1,33.8z M1.2,32.9h35.4V9.4H1.2V32.9z"/>
<path class="st1" d="M37.1,9.4H0.8c-0.2,0-0.3-0.1-0.4-0.2C0.2,9,0.2,8.8,0.3,8.7l4.8-8.2c0.1-0.1,0.2-0.2,0.4-0.2h26.6
	c0.2,0,0.3,0.1,0.4,0.2l4.8,8.2c0.1,0.1,0.1,0.3,0,0.5C37.4,9.3,37.3,9.4,37.1,9.4z M1.6,8.4h34.7L32,1.2H5.9L1.6,8.4z"/>
<path class="st1" d="M34.4,4.8h-31C3.2,4.8,3,4.7,3,4.4c0-0.3,0.2-0.5,0.5-0.5h30.9c0.3,0,0.5,0.2,0.5,0.5
	C34.9,4.7,34.7,4.8,34.4,4.8z"/>
<path class="st1" d="M16,20.7c-0.1,0-0.2,0-0.3-0.1l-2.9-2.9c-0.2-0.2-0.2-0.5,0-0.7c0.2-0.2,0.5-0.2,0.7,0l2.9,2.9
	c0.2,0.2,0.2,0.5,0,0.7C16.3,20.6,16.2,20.7,16,20.7z"/>
<path class="st1" d="M13.1,17.8c-0.1,0-0.2,0-0.3-0.1c-0.2-0.2-0.2-0.5,0-0.7l2.9-2.9c0.2-0.2,0.5-0.2,0.7,0c0.2,0.2,0.2,0.5,0,0.7
	l-2.9,2.9C13.3,17.7,13.2,17.8,13.1,17.8z"/>
<path class="st1" d="M20.3,26.6H16c-0.3,0-0.5-0.2-0.5-0.5c0-0.3,0.2-0.5,0.5-0.5h4.3c2.2,0,4-1.8,4-4s-1.8-4-4-4h-7.2
	c-0.3,0-0.5-0.2-0.5-0.5c0-0.3,0.2-0.5,0.5-0.5h7.2c2.7,0,4.9,2.2,4.9,4.9C25.2,24.4,23,26.6,20.3,26.6z"/>
</svg>
