<?xml version="1.0" encoding="utf-8"?>
<!-- Generator: Adobe Illustrator 26.0.2, SVG Export Plug-In . SVG Version: 6.00 Build 0)  -->
<svg version="1.1" id="Layer_1" xmlns="http://www.w3.org/2000/svg" xmlns:xlink="http://www.w3.org/1999/xlink" x="0px" y="0px"
	 viewBox="0 0 46 34" style="enable-background:new 0 0 46 34;" xml:space="preserve">
<style type="text/css">
	.st0{fill:#AFAFAF;}
	.st1{fill:#AFAFAF;stroke:#111111;stroke-width:0.5;stroke-miterlimit:10;}
</style>
<path class="st1" d="M13.5,6.3c-0.3,0-0.5,0.1-0.7,0.3c-0.2,0.2-0.3,0.4-0.3,0.7c0,0.3,0.1,0.5,0.3,0.7c0.2,0.2,0.4,0.3,0.7,0.3
	h11.8v19.6h-9.9c-0.4-2-2.2-3.5-4.3-3.5c-2.1,0-3.9,1.5-4.3,3.5H3.4v-4.2c0-0.3-0.1-0.5-0.3-0.7c-0.2-0.2-0.4-0.3-0.7-0.3
	c-0.5,0-0.9,0.4-0.9,1v5.1c0,0.5,0.4,1,1,1h4.3c0.4,2,2.2,3.5,4.3,3.5c2.1,0,3.9-1.5,4.3-3.5h15.8c0.4,2,2.2,3.5,4.3,3.5
	c2.1,0,3.9-1.5,4.3-3.5h4.9c0.5,0,1-0.4,1-1v-9.2c0-0.2-0.1-0.3-0.1-0.5l-5.6-9.2c-0.2-0.3-0.5-0.5-0.8-0.5H27.2V7.3
	c0-0.5-0.4-1-1-1H13.5z M27.2,11.3h11.3l5.2,8.5v8h-3.9c-0.4-2-2.2-3.5-4.3-3.5c-2.1,0-3.9,1.5-4.3,3.5h-3.9L27.2,11.3z M11,26.3
	c1.4,0,2.5,1.1,2.5,2.5c0,1.4-1.1,2.5-2.5,2.5c-1.4,0-2.5-1.1-2.5-2.5C8.5,27.4,9.7,26.3,11,26.3z M35.4,26.3c1.4,0,2.5,1.1,2.5,2.5
	c0,1.4-1.1,2.5-2.5,2.5c-1.4,0-2.5-1.1-2.5-2.5C32.9,27.4,34,26.3,35.4,26.3z"/>
<path class="st1" d="M1.1,6.8C0.9,6.8,0.7,6.9,0.6,7C0.5,7.2,0.4,7.3,0.4,7.5c0,0.2,0.1,0.4,0.2,0.5c0.1,0.1,0.3,0.2,0.5,0.2h10
	c0.2,0,0.3-0.1,0.5-0.2c0.1-0.1,0.2-0.3,0.2-0.5c0-0.2-0.1-0.4-0.2-0.5c-0.1-0.1-0.3-0.2-0.5-0.2H1.1z"/>
<path class="st1" d="M2,10.7c-0.2,0-0.4,0.1-0.5,0.2c-0.1,0.1-0.2,0.3-0.2,0.5c0,0.2,0.1,0.3,0.2,0.5S1.8,12,2,12h5.2
	c0.2,0,0.3-0.1,0.5-0.2c0.1-0.1,0.2-0.3,0.2-0.5S7.9,11,7.7,10.8s-0.3-0.2-0.5-0.2H2z"/>
<path class="st1" d="M2,15c-0.2,0-0.4,0.1-0.5,0.2c-0.1,0.1-0.2,0.3-0.2,0.5c0,0.2,0.1,0.4,0.2,0.5c0.1,0.1,0.3,0.2,0.5,0.2h2.9
	c0.2,0,0.3-0.1,0.5-0.2c0.1-0.1,0.2-0.3,0.2-0.5s-0.1-0.3-0.2-0.5C5.2,15,5.1,15,4.9,15H2z"/>
</svg>
