<svg width="100" height="100" viewBox="0 0 100 100" fill="none" xmlns="http://www.w3.org/2000/svg">
<path d="M30.3787 57.5502V57.3402H30.8187C30.9692 57.3435 31.1186 57.3159 31.258 57.2591C31.3973 57.2024 31.5235 57.1176 31.6287 57.0102C31.7375 56.9095 31.8239 56.7873 31.8825 56.6512C31.941 56.5151 31.9704 56.3683 31.9688 56.2202V45.2202C31.9881 44.9425 31.9025 44.6677 31.7287 44.4502C31.6317 44.3617 31.5182 44.2931 31.3946 44.2485C31.2711 44.2039 31.14 44.1841 31.0087 44.1902H30.2188V44.0002C30.4888 44.0002 30.7587 43.9102 31.0187 43.8502C31.2697 43.792 31.5168 43.7186 31.7587 43.6302C32.0025 43.5345 32.2341 43.4103 32.4487 43.2602C32.6838 43.0846 32.8984 42.8834 33.0887 42.6602H33.2987V56.2402C33.2946 56.3872 33.3229 56.5333 33.3816 56.6681C33.4404 56.8029 33.5282 56.9231 33.6387 57.0202C33.7456 57.1249 33.8723 57.2072 34.0114 57.2621C34.1505 57.3171 34.2992 57.3436 34.4487 57.3402H34.8787V57.5502H30.3787Z" fill="white"/>
<path d="M42.3583 42.67C43.3134 42.654 44.2428 42.9803 44.9783 43.59C45.7671 44.2913 46.3511 45.1933 46.6683 46.2C47.4549 48.8461 47.4549 51.6639 46.6683 54.31C46.3566 55.3173 45.7798 56.2222 44.9983 56.93C44.2542 57.5197 43.3327 57.8406 42.3833 57.8406C41.4339 57.8406 40.5123 57.5197 39.7683 56.93C38.9794 56.2246 38.3956 55.3195 38.0783 54.31C37.2916 51.6639 37.2916 48.8461 38.0783 46.2C38.3954 45.1933 38.9794 44.2913 39.7683 43.59C40.4932 42.9824 41.4125 42.6558 42.3583 42.67ZM42.3583 43.3C41.8028 43.3269 41.2678 43.5179 40.821 43.849C40.3742 44.1801 40.0356 44.6364 39.8483 45.16C39.1655 46.7702 38.8512 48.5127 38.9283 50.26C38.8514 52.0041 39.1657 53.7432 39.8483 55.35C40.0205 55.8773 40.355 56.3366 40.8041 56.6623C41.2531 56.988 41.7936 57.1634 42.3483 57.1634C42.903 57.1634 43.4435 56.988 43.8925 56.6623C44.3415 56.3366 44.676 55.8773 44.8483 55.35C45.5271 53.7423 45.838 52.0033 45.7583 50.26C45.8378 48.5135 45.5269 46.7712 44.8483 45.16C44.6611 44.6401 44.3253 44.1867 43.8826 43.856C43.44 43.5253 42.9099 43.332 42.3583 43.3Z" fill="white"/>
<path d="M54.7806 42.6702C55.7358 42.6542 56.6652 42.9805 57.4006 43.5902C58.1895 44.2915 58.7735 45.1935 59.0906 46.2002C59.8773 48.8463 59.8773 51.6641 59.0906 54.3102C58.7733 55.3197 58.1894 56.2249 57.4006 56.9302C56.6566 57.5199 55.735 57.8408 54.7856 57.8408C53.8362 57.8408 52.9147 57.5199 52.1706 56.9302C51.3818 56.2249 50.7979 55.3197 50.4806 54.3102C49.694 51.6641 49.694 48.8463 50.4806 46.2002C50.7977 45.1935 51.3818 44.2915 52.1706 43.5902C52.9008 42.9781 53.828 42.6512 54.7806 42.6702ZM54.7806 43.3002C54.2251 43.3271 53.6901 43.5182 53.2433 43.8493C52.7965 44.1804 52.458 44.6366 52.2706 45.1602C51.5879 46.7705 51.2736 48.5129 51.3506 50.2602C51.2737 52.0043 51.5881 53.7434 52.2706 55.3502C52.4429 55.8775 52.7774 56.3368 53.2264 56.6625C53.6754 56.9882 54.2159 57.1636 54.7706 57.1636C55.3253 57.1636 55.8658 56.9882 56.3148 56.6625C56.7638 56.3368 57.0984 55.8775 57.2706 55.3502C57.9494 53.7426 58.2603 52.0035 58.1806 50.2602C58.2602 48.5137 57.9493 46.7714 57.2706 45.1602C57.0834 44.6403 56.7477 44.1869 56.305 43.8562C55.8623 43.5256 55.3322 43.3322 54.7806 43.3002Z" fill="white"/>
<path d="M65.5201 42.6703C65.8917 42.6525 66.2611 42.7362 66.5888 42.9124C66.9164 43.0885 67.19 43.3506 67.3801 43.6703C67.8165 44.5033 67.9339 45.4669 67.7101 46.3803C67.577 47.3873 67.1331 48.3277 66.4401 49.0703C66.1559 49.3825 65.8102 49.6325 65.4247 49.8046C65.0392 49.9767 64.6222 50.0672 64.2001 50.0703C63.8285 50.0881 63.4591 50.0044 63.1314 49.8282C62.8038 49.6521 62.5302 49.3901 62.3401 49.0703C61.892 48.2412 61.7707 47.2744 62.0001 46.3603C62.1237 45.3467 62.5647 44.3981 63.2601 43.6503C63.5483 43.3393 63.8981 43.0916 64.2871 42.9229C64.6762 42.7542 65.096 42.6682 65.5201 42.6703ZM65.4301 43.0903C65.1339 43.1075 64.8471 43.2001 64.5968 43.3594C64.3465 43.5187 64.1411 43.7393 64.0001 44.0003C63.5359 44.7278 63.2325 45.5461 63.1101 46.4003C62.9077 47.1841 62.9077 48.0065 63.1101 48.7903C63.175 49.0395 63.3216 49.2596 63.5265 49.4156C63.7314 49.5715 63.9827 49.6542 64.2401 49.6503C64.5297 49.6366 64.8113 49.5508 65.0593 49.4006C65.3073 49.2504 65.5138 49.0406 65.6601 48.7903C66.1319 48.0703 66.4361 47.2536 66.5501 46.4003C66.752 45.6131 66.752 44.7876 66.5501 44.0003C66.497 43.7427 66.3565 43.5114 66.1524 43.3455C65.9483 43.1797 65.6931 43.0895 65.4301 43.0903ZM64.5001 57.7803L64.0001 57.5503L71.4101 43.4603L70.2501 44.0003C69.8041 44.1967 69.3153 44.2759 68.8301 44.2303C68.4167 44.1836 68.0161 44.058 67.6501 43.8603C67.2901 43.6603 66.9201 43.4703 66.5601 43.2903C66.2051 43.1096 65.8073 43.03 65.4101 43.0603V42.6403C65.7501 42.6366 66.0882 42.6907 66.4101 42.8003C66.6894 42.8985 66.9575 43.0259 67.2101 43.1803C67.4466 43.3374 67.6939 43.4778 67.9501 43.6003C68.2157 43.7317 68.5045 43.8099 68.8001 43.8303C69.2055 43.8778 69.6165 43.8298 70.0001 43.6903C70.3472 43.5568 70.6819 43.3928 71.0001 43.2003C71.2576 43.0435 71.5248 42.9032 71.8001 42.7803L72.2601 42.9603L64.5001 57.7803ZM72.0601 50.4903C72.4333 50.4707 72.8048 50.5535 73.1344 50.7297C73.464 50.906 73.7392 51.169 73.9301 51.4903C74.3632 52.3246 74.4769 53.2881 74.2501 54.2003C74.1148 55.1938 73.6786 56.1221 73.0001 56.8603C72.7183 57.1754 72.373 57.4274 71.987 57.5997C71.6009 57.7721 71.1828 57.8609 70.7601 57.8603C70.386 57.8857 70.0123 57.8054 69.6816 57.6286C69.351 57.4517 69.0767 57.1855 68.8901 56.8603C68.4582 56.0365 68.3443 55.0827 68.5701 54.1803C68.6917 53.1661 69.133 52.2169 69.8301 51.4703C70.1126 51.1601 70.457 50.9126 70.8412 50.7438C71.2253 50.575 71.6405 50.4886 72.0601 50.4903ZM72.0001 50.9003C71.7075 50.9172 71.4237 51.0064 71.1741 51.16C70.9245 51.3136 70.717 51.5267 70.5701 51.7803C70.1025 52.5061 69.7988 53.3251 69.6801 54.1803C69.4768 54.9606 69.4768 55.78 69.6801 56.5603C69.7394 56.8114 69.8829 57.0346 70.0866 57.1929C70.2904 57.3512 70.5421 57.4349 70.8001 57.4303C71.0922 57.4163 71.3761 57.3293 71.6259 57.1774C71.8757 57.0254 72.0834 56.8132 72.2301 56.5603C72.6943 55.8411 72.9947 55.0286 73.1101 54.1803C73.3173 53.3937 73.3173 52.5669 73.1101 51.7803C73.0498 51.5308 72.9078 51.3086 72.7067 51.1491C72.5055 50.9897 72.2568 50.9021 72.0001 50.9003Z" fill="white"/>
<path d="M50.2688 0.200196C40.4683 0.200197 30.8879 3.10651 22.7392 8.55157C14.5906 13.9966 8.23961 21.7359 4.48958 30.7905C0.739557 39.8452 -0.241115 49.8086 1.67159 59.4206C3.5843 69.0326 8.30448 77.8616 15.2352 84.7909C22.1659 91.7202 30.9958 96.4386 40.6082 98.3493C50.2206 100.26 60.1838 99.2774 69.2377 95.5256C78.2916 91.7737 86.0295 85.4212 91.473 77.2714C96.9164 69.1217 99.8207 59.5407 99.8188 49.7402C99.8188 43.2337 98.537 36.7909 96.0468 30.7797C93.5566 24.7686 89.9066 19.3069 85.3053 14.7066C80.704 10.1062 75.2416 6.45736 69.23 3.96833C63.2184 1.4793 56.7753 0.198883 50.2688 0.200196ZM9.47877 60.2002L8.16877 61.7602L7.93877 59.7602L5.99877 58.9402L7.85877 58.1002L7.99877 56.1002L9.37877 57.6002L11.3788 57.1102L10.3788 58.8902L11.4588 60.6202L9.47877 60.2002ZM9.74877 49.9002L10.3688 52.6602L7.93877 51.2102L5.49877 52.6402L6.11877 49.8702L3.99877 48.0002L6.80877 47.7402L7.93877 45.1402L9.05877 47.7402L11.8788 48.0102L9.74877 49.9002ZM10.2588 41.2002L10.0488 43.2002L8.71877 41.6602L6.71877 42.0902L7.76877 40.3502L6.76877 38.5902L8.76877 39.0502L10.1288 37.5302L10.2988 39.5302L12.1688 40.3602L10.2588 41.2002ZM50.2588 82.8602C43.7122 82.8602 37.3127 80.9189 31.8694 77.2818C26.4261 73.6448 22.1836 68.4753 19.6784 62.427C17.1731 56.3788 16.5176 49.7235 17.7948 43.3027C19.0719 36.8819 22.2244 30.9841 26.8535 26.355C31.4827 21.7258 37.3805 18.5734 43.8013 17.2962C50.2221 16.019 56.8774 16.6745 62.9256 19.1798C68.9738 21.685 74.1433 25.9276 77.7804 31.3708C81.4175 36.8141 83.3588 43.2136 83.3588 49.7602C83.3535 58.5337 79.8652 66.9461 73.6605 73.149C67.4558 79.3518 59.0422 82.8375 50.2688 82.8402L50.2588 82.8602ZM89.4188 39.5902L89.5988 37.5902L90.9988 39.0602L92.9988 38.6002L91.9988 40.3602L92.9988 42.1002L90.9988 41.6702L89.6788 43.2102L89.4688 41.2102L87.5888 40.4302L89.4188 39.5902ZM91.7588 59.7302L91.5288 61.7302L90.2188 60.1702L88.2188 60.5702L89.2988 58.8402L88.2988 57.0602L90.2988 57.5502L91.6788 56.0502L91.8288 58.0502L93.6788 58.8902L91.7588 59.7302ZM91.7588 51.2102L89.3288 52.6602L89.9488 49.9002L87.8288 48.0002L90.6488 47.7302L91.7688 45.1302L92.8888 47.7302L95.7088 47.9902L93.5888 49.8602L94.2088 52.6302L91.7588 51.2102Z" fill="#AFAFAF"/>
<path d="M50.2672 15.3403C43.4635 15.3403 36.8126 17.3579 31.1556 21.1378C25.4985 24.9177 21.0894 30.2902 18.4857 36.576C15.8821 42.8618 15.2009 49.7785 16.5282 56.4514C17.8555 63.1244 21.1318 69.2539 25.9427 74.0648C30.7537 78.8757 36.8831 82.152 43.5561 83.4793C50.229 84.8067 57.1457 84.1254 63.4315 81.5218C69.7173 78.9181 75.0898 74.509 78.8698 68.8519C82.6497 63.1949 84.6672 56.544 84.6672 49.7403C84.6672 40.6169 81.0429 31.8671 74.5917 25.4159C68.1404 18.9646 59.3907 15.3403 50.2672 15.3403ZM50.2672 82.8403C43.7206 82.8403 37.3211 80.899 31.8778 77.262C26.4346 73.6249 22.192 68.4554 19.6868 62.4072C17.1815 56.3589 16.526 49.7036 17.8032 43.2828C19.0804 36.8621 22.2329 30.9642 26.862 26.3351C31.4911 21.706 37.3889 18.5535 43.8097 17.2763C50.2305 15.9992 56.8858 16.6547 62.934 19.1599C68.9823 21.6652 74.1518 25.9077 77.7888 31.351C81.4259 36.7942 83.3672 43.1938 83.3672 49.7403C83.3672 58.519 79.8799 66.9381 73.6724 73.1456C67.465 79.353 59.0459 82.8403 50.2672 82.8403Z" fill="url(#paint0_linear_203_6028)"/>
<path d="M14.9818 29.3159L15.3581 28.5789L17.4539 29.6491C17.5381 30.0276 17.5489 30.4235 17.4863 30.8367C17.4237 31.25 17.2944 31.6485 17.0984 32.0324C16.8213 32.5749 16.454 33.0035 15.9965 33.3184C15.5338 33.6306 15.0311 33.8062 14.4885 33.8453C13.9434 33.8767 13.4098 33.7591 12.8878 33.4925C12.3657 33.2259 11.9576 32.8627 11.6634 32.4027C11.3717 31.9376 11.2193 31.4275 11.206 30.8722C11.1953 30.3119 11.3298 29.7579 11.6094 29.2102C11.829 28.7803 12.0992 28.4279 12.4202 28.1531C12.7388 27.8705 13.0964 27.6756 13.4931 27.5685L13.726 28.2875C13.0919 28.5057 12.6194 28.9194 12.3084 29.5284C12.0993 29.9378 12.0007 30.3521 12.0126 30.7711C12.0219 31.1824 12.1382 31.5612 12.3615 31.9075C12.5796 32.2511 12.8857 32.5236 13.2798 32.7248C13.6688 32.9234 14.0689 33.0116 14.4803 32.9894C14.8866 32.9646 15.2617 32.8367 15.6054 32.6057C15.9518 32.3696 16.2282 32.0494 16.4347 31.6451C16.6804 31.164 16.7795 30.6855 16.7321 30.2097L14.9818 29.3159Z" fill="#111111"/>
<path d="M20.7914 24.8707L21.3977 25.3122L18.8201 28.8521L13.9422 25.3003L16.4488 21.8579L17.055 22.2994L15.0559 25.0449L16.5541 26.1358L18.335 23.6899L18.9274 24.1212L17.1464 26.5671L18.7212 27.7139L20.7914 24.8707Z" fill="#111111"/>
<path d="M21.5784 16.5336L25.8147 20.8305L25.3114 21.3267L19.5742 20.6643L22.7333 23.8685L22.1194 24.4737L17.8831 20.1768L18.3865 19.6806L24.1237 20.343L20.9646 17.1388L21.5784 16.5336Z" fill="#111111"/>
<path d="M29.0913 18.4836C28.4279 18.9388 27.7814 19.1037 27.1516 18.9783C26.5219 18.8528 25.9632 18.4348 25.4755 17.724L23.5342 14.8953L24.245 14.4075L26.1667 17.2078C26.8983 18.2739 27.7308 18.4867 28.6643 17.8461C29.1191 17.534 29.378 17.1647 29.4408 16.7382C29.5003 16.3071 29.3448 15.8214 28.9741 15.2812L27.0524 12.4809L27.7418 12.0078L29.683 14.8366C30.174 15.552 30.3648 16.2261 30.2553 16.8588C30.1426 17.4868 29.7546 18.0283 29.0913 18.4836Z" fill="#111111"/>
<path d="M29.7714 10.9278L30.5371 10.532L33.3076 15.8924L32.5419 16.2881L29.7714 10.9278Z" fill="#111111"/>
<path d="M37.4517 7.64176L39.5777 13.2888L38.9161 13.5379L33.9425 10.6024L35.5279 14.8135L34.7212 15.1172L32.5952 9.47009L33.2567 9.22105L38.2303 12.1566L36.645 7.94547L37.4517 7.64176Z" fill="#111111"/>
<path d="M45.2098 11.3237L45.3565 12.0592L41.0621 12.9157L39.8818 6.99827L44.0579 6.16533L44.2046 6.90078L40.8739 7.56511L41.2364 9.38261L44.2036 8.79079L44.3469 9.50933L41.3797 10.1012L41.7608 12.0116L45.2098 11.3237Z" fill="#111111"/>
<path d="M51.1711 5.80058C51.9524 5.81621 52.5635 6.01523 53.0042 6.39765C53.4448 6.78008 53.6586 7.29878 53.6455 7.95377C53.6324 8.60876 53.3981 9.1185 52.9425 9.483C52.4868 9.84749 51.8683 10.0219 51.0869 10.0063L49.596 9.97648L49.5594 11.8036L48.6976 11.7863L48.8183 5.75352L51.1711 5.80058ZM51.0761 9.25599C51.6219 9.26691 52.0408 9.16033 52.3326 8.93625C52.6246 8.70643 52.775 8.37319 52.7837 7.93653C52.7924 7.49988 52.6555 7.16376 52.3728 6.9282C52.0902 6.68688 51.676 6.56077 51.1302 6.54985L49.6651 6.52055L49.611 9.22669L51.0761 9.25599Z" fill="#111111"/>
<path d="M58.5889 12.6872L57.6267 10.6371C57.4663 10.6206 57.3407 10.6044 57.2502 10.5886L55.7813 10.3312L55.4644 12.1397L54.6153 11.9909L55.6569 6.04744L57.9748 6.45365C58.7446 6.58856 59.3181 6.87866 59.6951 7.32396C60.0721 7.76926 60.2041 8.31456 60.091 8.95984C60.0107 9.41834 59.829 9.78906 59.546 10.072C59.2631 10.355 58.8993 10.5334 58.4546 10.6071L59.5144 12.8494L58.5889 12.6872ZM57.3512 9.86241C57.8889 9.95665 58.3196 9.91253 58.6433 9.73005C58.967 9.54757 59.1666 9.24124 59.2419 8.81105C59.3173 8.38086 59.2334 8.02775 58.99 7.75174C58.7477 7.47006 58.3576 7.28211 57.8199 7.18787L56.3765 6.93492L55.9078 9.60946L57.3512 9.86241Z" fill="#111111"/>
<path d="M63.0507 14.1003C62.4775 13.8943 62.0057 13.5842 61.6355 13.1703C61.2671 12.7509 61.0302 12.2718 60.9246 11.7331C60.8244 11.1964 60.8725 10.6549 61.0688 10.1087C61.2651 9.56248 61.5727 9.1143 61.9917 8.76415C62.4161 8.41595 62.9028 8.20007 63.4519 8.11653C64.003 8.02757 64.5651 8.08612 65.1383 8.29216C65.7062 8.49626 66.1742 8.808 66.5426 9.2274C66.9128 9.64139 67.148 10.1168 67.2482 10.6535C67.3504 11.1849 67.3023 11.7263 67.104 12.2779C66.9058 12.8296 66.5972 13.2804 66.1782 13.6306C65.7612 13.9753 65.2771 14.1922 64.7261 14.2811C64.177 14.3647 63.6185 14.3044 63.0507 14.1003ZM63.3102 13.3783C63.7266 13.528 64.1338 13.5675 64.5317 13.4968C64.935 13.428 65.2906 13.2627 65.5985 13.0009C65.9137 12.7355 66.1451 12.3974 66.2929 11.9864C66.4406 11.5754 66.4764 11.1699 66.4003 10.7701C66.3315 10.3668 66.1635 10.0102 65.8962 9.7004C65.6344 9.39255 65.2953 9.16379 64.8788 9.01412C64.4624 8.86445 64.0499 8.82302 63.6411 8.88984C63.2378 8.95861 62.8785 9.12565 62.5633 9.39096C62.2555 9.65282 62.0277 9.98924 61.88 10.4002C61.7322 10.8113 61.6928 11.2184 61.7615 11.6217C61.8376 12.0216 62.0093 12.3764 62.2766 12.6862C62.5493 12.998 62.8938 13.2287 63.3102 13.3783Z" fill="#111111"/>
<path d="M69.9714 10.4063L72.1697 11.6844C72.7212 12.005 73.147 12.3988 73.4472 12.8658C73.7473 13.3328 73.8986 13.8329 73.901 14.3661C73.9113 14.8972 73.7677 15.4186 73.4702 15.9303C73.1727 16.442 72.7892 16.8273 72.3196 17.0861C71.858 17.3428 71.35 17.4562 70.7956 17.4264C70.2413 17.3966 69.6884 17.2214 69.1369 16.9008L66.9386 15.6227L69.9714 10.4063ZM69.4691 16.2265C69.8914 16.472 70.3092 16.6052 70.7225 16.6261C71.1407 16.6499 71.522 16.5658 71.8663 16.3738C72.2135 16.1768 72.4997 15.8846 72.725 15.497C72.9503 15.1095 73.0612 14.7187 73.0577 14.3245C73.0572 13.9253 72.9431 13.5499 72.7155 13.1982C72.4928 12.8494 72.1704 12.5522 71.7481 12.3067L70.3397 11.4878L68.0607 15.4076L69.4691 16.2265Z" fill="#111111"/>
<path d="M74.6343 20.8146C74.0229 20.2916 73.6962 19.7098 73.6544 19.069C73.6125 18.4283 73.8718 17.7803 74.4321 17.1252L76.6621 14.5178L77.3172 15.0781L75.1096 17.6593C74.2692 18.642 74.2791 19.5013 75.1395 20.2371C75.5588 20.5957 75.9825 20.7502 76.4107 20.7005C76.8426 20.6464 77.2715 20.3704 77.6973 19.8725L79.9049 17.2913L80.5404 17.8348L78.3104 20.4422C77.7464 21.1017 77.1446 21.4604 76.5051 21.5185C75.8694 21.5722 75.2458 21.3375 74.6343 20.8146Z" fill="#111111"/>
<path d="M79.3444 25.6011C78.9587 25.137 78.7114 24.6327 78.6024 24.0881C78.5016 23.5442 78.542 23.0174 78.7237 22.5078C78.9097 21.9944 79.2282 21.5504 79.6789 21.1757C80.1297 20.8011 80.6223 20.571 81.1565 20.4856C81.6953 20.3965 82.2224 20.4554 82.7379 20.662C83.2578 20.865 83.7106 21.1986 84.0963 21.6626C84.3976 22.025 84.6112 22.4079 84.7372 22.8112C84.8677 23.2109 84.9017 23.616 84.8394 24.0265L84.0636 23.9428C84.1403 23.2887 83.9618 22.701 83.5284 22.1795C83.2419 21.8348 82.9056 21.5875 82.5195 21.4376C82.1334 21.2878 81.7372 21.2472 81.331 21.3158C80.9328 21.3852 80.5658 21.5595 80.2299 21.8387C79.8941 22.1178 79.6534 22.4486 79.508 22.831C79.3706 23.2142 79.3403 23.6093 79.417 24.0163C79.4938 24.4233 79.6754 24.7991 79.9619 25.1438C80.3917 25.6609 80.9391 25.9419 81.6042 25.9869L81.5447 26.765C81.1298 26.7512 80.7337 26.6432 80.3565 26.4412C79.983 26.2435 79.6456 25.9635 79.3444 25.6011Z" fill="#111111"/>
<path d="M86.5339 26.3827L85.4393 24.6272L86.0756 24.2304L88.7164 28.4655L88.08 28.8623L86.9854 27.1068L82.5016 29.9026L82.05 29.1785L86.5339 26.3827Z" fill="#111111"/>
<path d="M84.4975 33.9297C84.3111 33.5158 84.1933 33.0867 84.1444 32.6423C84.1031 32.2008 84.135 31.824 84.2402 31.5119L84.9842 31.5265C84.89 31.821 84.8558 32.1579 84.8817 32.537C84.9151 32.919 85.0098 33.2829 85.1656 33.6287C85.3709 34.0846 85.6004 34.3909 85.8538 34.5477C86.1125 34.7022 86.3702 34.7216 86.6269 34.6059C86.8156 34.521 86.9392 34.3896 86.9978 34.212C87.064 34.0372 87.0872 33.8439 87.0675 33.6322C87.0501 33.4257 87.0063 33.1397 86.9362 32.7742C86.8493 32.3155 86.7977 31.9353 86.7816 31.6337C86.7679 31.3374 86.8218 31.0515 86.9436 30.776C87.0729 30.5035 87.313 30.2881 87.6641 30.1299C87.9575 29.9978 88.2563 29.9545 88.5606 30.0002C88.8671 30.0512 89.162 30.202 89.4451 30.4526C89.7282 30.7032 89.9748 31.0617 90.1849 31.528C90.3312 31.8529 90.4333 32.1913 90.4911 32.5435C90.5489 32.8956 90.55 33.2197 90.4943 33.5159L89.7488 33.5398C89.7916 33.2431 89.7907 32.9473 89.746 32.6523C89.7065 32.3549 89.6302 32.0805 89.5169 31.829C89.3162 31.3836 89.0839 31.0849 88.82 30.9328C88.5584 30.7859 88.2993 30.7703 88.0425 30.886C87.8539 30.971 87.7277 31.1035 87.6638 31.2835C87.6052 31.4612 87.5832 31.6571 87.5977 31.8711C87.6198 32.0881 87.6662 32.3729 87.7368 32.7255C87.8237 33.1843 87.8741 33.5619 87.8879 33.8582C87.9016 34.1545 87.8465 34.4378 87.7224 34.708C87.6007 34.9835 87.3669 35.1991 87.0211 35.3549C86.7329 35.4847 86.4329 35.5254 86.1211 35.4768C85.8145 35.4258 85.5185 35.2724 85.233 35.0165C84.9528 34.7583 84.7076 34.396 84.4975 33.9297Z" fill="#111111"/>
<path d="M85.2828 70.1954L84.8929 70.9253L82.8172 69.8167C82.74 69.4367 82.7365 69.0407 82.8067 68.6286C82.8769 68.2166 83.0136 67.8205 83.2166 67.4403C83.5036 66.903 83.8787 66.4812 84.342 66.1749C84.8104 65.8712 85.3162 65.7049 85.8594 65.6758C86.405 65.6545 86.9364 65.7819 87.4534 66.058C87.9704 66.3342 88.3718 66.7049 88.6575 67.1702C88.9405 67.6406 89.0835 68.1535 89.0866 68.7089C89.0869 69.2694 88.9423 69.8208 88.6526 70.3632C88.4252 70.789 88.1485 71.1363 87.8224 71.4052C87.4988 71.6819 87.1376 71.8701 86.739 71.9699L86.5194 71.2467C87.1574 71.0402 87.6375 70.6354 87.9596 70.0322C88.1762 69.6266 88.2824 69.2143 88.2783 68.7951C88.2765 68.3837 88.1672 68.0029 87.9504 67.6525C87.7386 67.3049 87.4376 67.0269 87.0473 66.8184C86.6621 66.6126 86.2636 66.5171 85.8518 66.5317C85.4452 66.549 85.0678 66.67 84.7199 66.8946C84.3692 67.1243 84.0869 67.4393 83.873 67.8398C83.6185 68.3163 83.5106 68.7928 83.5492 69.2695L85.2828 70.1954Z" fill="#111111"/>
<path d="M79.3109 74.5484L78.7173 74.0901L81.3936 70.6241L86.1695 74.3119L83.567 77.6823L82.9735 77.224L85.0491 74.5358L83.5822 73.4032L81.7331 75.798L81.1532 75.3502L83.0023 72.9554L81.4604 71.7647L79.3109 74.5484Z" fill="#111111"/>
<path d="M78.3647 82.9143L74.2304 78.5193L74.7452 78.035L80.4653 78.8318L77.3822 75.5544L78.01 74.9637L82.1444 79.3587L81.6296 79.8431L75.9095 79.0463L78.9926 82.3237L78.3647 82.9143Z" fill="#111111"/>
<path d="M70.9136 80.7477C71.587 80.3074 72.237 80.157 72.8638 80.2965C73.4906 80.4359 74.0398 80.8664 74.5116 81.5878L76.3891 84.4592L75.6677 84.931L73.809 82.0884C73.1014 81.0063 72.2738 80.7749 71.3263 81.3945C70.8645 81.6964 70.5975 82.0599 70.5252 82.4848C70.456 82.9145 70.6007 83.4035 70.9592 83.9518L72.8179 86.7944L72.1181 87.252L70.2405 84.3806C69.7656 83.6543 69.59 82.9761 69.7135 82.3461C69.8402 81.7208 70.2403 81.188 70.9136 80.7477Z" fill="#111111"/>
<path d="M70.09 88.2777L69.3178 88.6607L66.6368 83.2551L67.409 82.8721L70.09 88.2777Z" fill="#111111"/>
<path d="M62.2987 91.4128L60.3014 85.719L60.9684 85.485L65.8741 88.5326L64.3847 84.2866L65.1981 84.0013L67.1954 89.6951L66.5284 89.9291L61.6227 86.8815L63.1121 91.1275L62.2987 91.4128Z" fill="#111111"/>
<path d="M54.6711 87.5558L54.5403 86.8173L58.8522 86.0539L59.9042 91.9955L55.7111 92.7379L55.5804 91.9994L58.9246 91.4073L58.6015 89.5824L55.6223 90.1099L55.4945 89.3884L58.4738 88.8609L58.1342 86.9426L54.6711 87.5558Z" fill="#111111"/>
<path d="M48.5581 92.9662C47.7772 92.935 47.1702 92.7238 46.7373 92.3326C46.3043 91.9415 46.101 91.4186 46.1271 90.764C46.1533 90.1094 46.3978 89.6044 46.8606 89.2491C47.3234 88.8938 47.9453 88.7318 48.7262 88.763L50.2163 88.8226L50.2893 86.9966L51.1506 87.0311L50.9095 93.0603L48.5581 92.9662ZM48.7221 89.5134C48.1766 89.4916 47.7557 89.5897 47.4594 89.8079C47.1629 90.0319 47.0059 90.3621 46.9884 90.7985C46.971 91.2348 47.1012 91.5736 47.3791 91.8148C47.6568 92.0617 48.0684 92.1961 48.6139 92.2179L50.0781 92.2765L50.1863 89.5719L48.7221 89.5134Z" fill="#111111"/>
<path d="M41.2859 85.9022L42.211 87.9693C42.3711 87.9887 42.4964 88.0071 42.5866 88.0246L44.0506 88.3084L44.4001 86.5059L45.2463 86.67L44.0978 92.5937L41.7876 92.1458C41.0203 91.997 40.4522 91.6966 40.0833 91.2446C39.7143 90.7926 39.5922 90.245 39.7169 89.6019C39.8055 89.1449 39.9938 88.7775 40.2818 88.4997C40.5698 88.2219 40.9368 88.0501 41.3827 87.9843L40.3635 85.7233L41.2859 85.9022ZM42.4725 88.7488C41.9366 88.6449 41.5052 88.6813 41.1782 88.8579C40.8513 89.0345 40.6463 89.3372 40.5631 89.7659C40.48 90.1947 40.5576 90.5493 40.796 90.8296C41.0332 91.1156 41.4198 91.3106 41.9557 91.4145L43.3943 91.6934L43.9112 89.0277L42.4725 88.7488Z" fill="#111111"/>
<path d="M36.8661 84.3492C37.4342 84.5691 37.8983 84.8905 38.2584 85.3134C38.6164 85.7416 38.8416 86.2262 38.9341 86.7673C39.0213 87.3064 38.9601 87.8465 38.7505 88.3878C38.541 88.9291 38.2226 89.3696 37.7952 89.7095C37.3625 90.0473 36.8707 90.2513 36.3197 90.3215C35.7667 90.397 35.2061 90.3249 34.6381 90.105C34.0754 89.8871 33.615 89.5641 33.257 89.1359C32.8969 88.713 32.6732 88.2321 32.5861 87.6931C32.4969 87.1594 32.5581 86.6193 32.7697 86.0726C32.9813 85.526 33.3008 85.0827 33.7281 84.7429C34.1534 84.4083 34.6426 84.2033 35.1956 84.1278C35.7465 84.0576 36.3034 84.1314 36.8661 84.3492ZM36.5891 85.0647C36.1765 84.9049 35.7704 84.8556 35.3709 84.9166C34.966 84.9756 34.6065 85.1322 34.2924 85.3865C33.9709 85.6441 33.7312 85.9765 33.5736 86.3838C33.4159 86.7911 33.3703 87.1955 33.4367 87.5971C33.4956 88.002 33.6549 88.3625 33.9146 88.6787C34.1689 88.9928 34.5024 89.2298 34.915 89.3895C35.3277 89.5492 35.7391 89.6007 36.1494 89.5438C36.5542 89.4849 36.9174 89.3266 37.239 89.069C37.5531 88.8147 37.789 88.4839 37.9467 88.0766C38.1043 87.6693 38.1537 87.2632 38.0947 86.8583C38.0283 86.4568 37.8653 86.0979 37.6057 85.7817C37.3406 85.4634 37.0018 85.2244 36.5891 85.0647Z" fill="#111111"/>
<path d="M29.8262 87.9613L27.6568 86.6346C27.1127 86.3018 26.6957 85.8986 26.406 85.425C26.1164 84.9514 25.9762 84.4481 25.9857 83.915C25.9872 83.3838 26.1424 82.8657 26.4513 82.3607C26.7601 81.8558 27.1521 81.4792 27.6273 81.2309C28.0946 80.9845 28.605 80.8824 29.1585 80.9245C29.7121 80.9667 30.2609 81.1542 30.8051 81.487L32.9744 82.8138L29.8262 87.9613ZM30.4579 82.1538C30.0412 81.8989 29.6265 81.7564 29.2138 81.7263C28.7962 81.6932 28.4132 81.7688 28.0647 81.9531C27.7132 82.1423 27.4205 82.4281 27.1866 82.8105C26.9528 83.1929 26.8332 83.5812 26.8279 83.9753C26.8195 84.3744 26.9252 84.7523 27.145 85.109C27.3598 85.4627 27.6755 85.7669 28.0922 86.0218L29.4821 86.8718L31.8478 83.0038L30.4579 82.1538Z" fill="#111111"/>
<path d="M25.3776 77.4337C25.9776 77.9697 26.2916 78.5584 26.3196 79.1999C26.3476 79.8413 26.0745 80.4835 25.5002 81.1263L23.2146 83.6849L22.5717 83.1106L24.8344 80.5778C25.6958 79.6135 25.7044 78.7543 24.8601 78.0001C24.4487 77.6325 24.0284 77.469 23.5992 77.5094C23.1663 77.5542 22.7316 77.8208 22.2951 78.3094L20.0325 80.8422L19.4089 80.2852L21.6945 77.7266C22.2726 77.0795 22.882 76.7338 23.5225 76.6896C24.1593 76.6496 24.7776 76.8977 25.3776 77.4337Z" fill="#111111"/>
<path d="M20.8325 72.53C21.2105 73.0004 21.4494 73.5088 21.5492 74.0551C21.641 74.6006 21.5919 75.1266 21.4018 75.6332C21.2072 76.1434 20.8814 76.582 20.4245 76.9492C19.9675 77.3163 19.4712 77.5381 18.9356 77.6146C18.3955 77.6947 17.8694 77.6272 17.3574 77.412C16.8409 77.2003 16.3937 76.8593 16.0158 76.3889C15.7206 76.0216 15.5134 75.6352 15.3941 75.2298C15.2703 74.828 15.2429 74.4224 15.3121 74.013L16.0864 74.1096C15.9989 74.7623 16.1675 75.3529 16.5922 75.8816C16.873 76.231 17.2051 76.4838 17.5887 76.6401C17.9722 76.7963 18.3677 76.8435 18.775 76.7816C19.1742 76.7189 19.5441 76.5507 19.8846 76.2772C20.225 76.0036 20.4712 75.6769 20.6229 75.2969C20.7666 74.9161 20.8035 74.5216 20.7335 74.1134C20.6636 73.7052 20.4882 73.3263 20.2075 72.9769C19.7864 72.4528 19.2437 72.1627 18.5794 72.1066L18.6518 71.3297C19.0665 71.3504 19.4607 71.4649 19.8345 71.6732C20.2047 71.8771 20.5374 72.1627 20.8325 72.53Z" fill="#111111"/>
<path d="M13.678 71.5719L14.7333 73.3513L14.0882 73.7338L11.5425 69.4409L12.1875 69.0584L13.2428 70.8378L17.7877 68.1426L18.223 68.8766L13.678 71.5719Z" fill="#111111"/>
<path d="M15.8455 64.0841C16.0237 64.5016 16.1329 64.933 16.1731 65.3782C16.2057 65.8205 16.1663 66.1966 16.055 66.5065L15.3114 66.4772C15.4114 66.1846 15.4522 65.8485 15.4339 65.4689C15.408 65.0863 15.3206 64.7206 15.1716 64.3718C14.9753 63.912 14.752 63.6012 14.5017 63.4393C14.2461 63.2798 13.9889 63.2553 13.7299 63.3658C13.5396 63.4471 13.4134 63.5759 13.3513 63.7524C13.2817 63.9259 13.2546 64.1186 13.2702 64.3307C13.2835 64.5375 13.3215 64.8242 13.3844 65.1911C13.4623 65.6515 13.5063 66.0326 13.5164 66.3344C13.5243 66.631 13.4647 66.9157 13.3375 67.1887C13.2029 67.4587 12.9585 67.6692 12.6044 67.8204C12.3084 67.9468 12.0088 67.9841 11.7055 67.9324C11.4 67.8754 11.1082 67.7188 10.8301 67.4626C10.552 67.2064 10.3126 66.8431 10.1117 66.3728C9.97183 66.0451 9.87646 65.7046 9.82563 65.3514C9.77481 64.9982 9.78016 64.6741 9.84168 64.3792L10.5876 64.37C10.5389 64.6657 10.534 64.9615 10.5728 65.2574C10.6063 65.5555 10.6773 65.8314 10.7856 66.0851C10.9774 66.5343 11.2037 66.8376 11.4646 66.9949C11.7232 67.1469 11.982 67.1676 12.241 67.0571C12.4312 66.9758 12.5601 66.8458 12.6275 66.6671C12.6896 66.4906 12.7155 66.2952 12.7052 66.0809C12.6874 65.8636 12.6467 65.5779 12.583 65.2239C12.5052 64.7635 12.4623 64.385 12.4544 64.0885C12.4465 63.7919 12.5073 63.5098 12.6367 63.2421C12.7638 62.9691 13.0018 62.7582 13.3506 62.6092C13.6413 62.4851 13.942 62.4504 14.2529 62.5052C14.5584 62.5622 14.8513 62.7215 15.1317 62.9829C15.4067 63.2466 15.6447 63.6137 15.8455 64.0841Z" fill="#111111"/>
<defs>
<linearGradient id="paint0_linear_203_6028" x1="23.9972" y1="27.8903" x2="75.9172" y2="71.0803" gradientUnits="userSpaceOnUse">
<stop stop-color="#D5D5D5"/>
<stop offset="0.05" stop-color="#E0E0E0"/>
<stop offset="0.21" stop-color="white"/>
<stop offset="0.45" stop-color="#272727"/>
<stop offset="0.67" stop-color="#B7B7B7"/>
<stop offset="1" stop-color="#D5D5D5"/>
</linearGradient>
</defs>
</svg>
