<?xml version="1.0" encoding="utf-8"?>
<!-- Generator: Adobe Illustrator 26.0.2, SVG Export Plug-In . SVG Version: 6.00 Build 0)  -->
<svg version="1.1" id="Layer_1" xmlns="http://www.w3.org/2000/svg" xmlns:xlink="http://www.w3.org/1999/xlink" x="0px" y="0px"
	 viewBox="0 0 47 42" style="enable-background:new 0 0 47 42;" xml:space="preserve">
<style type="text/css">
	.st0{fill:none;stroke:#7F7F7F;stroke-width:2;stroke-miterlimit:10;}
	.st1{fill:none;stroke:#7F7F7F;stroke-width:2;stroke-linejoin:round;stroke-miterlimit:10;}
</style>
<g>
	<path class="st1" d="M45.67,13.98c0-0.01,0-0.01,0-0.02v-0.01c0-0.07-0.01-0.12,0.04-0.17v-0.35c-0.15-0.27-0.13-0.56-0.18-0.85
		c-0.35-2.39-1.22-4.57-2.74-6.47c-1.97-2.45-4.51-3.93-7.65-4.39c-2.56-0.38-4.98,0.03-7.25,1.31c-1.56,0.89-2.86,2.09-3.93,3.52
		c-0.19,0.24-0.29,0.34-0.51,0.02c-0.23-0.35-0.52-0.68-0.82-0.99c-2.95-3.22-6.57-4.61-10.89-3.78C7.21,2.68,4.18,5.47,2.62,9.74
		c-1.72,4.72-0.99,9.2,1.71,13.39c1.51,2.34,3.4,4.34,5.42,6.24c3.92,3.68,8.1,7.09,12.16,10.62c1.19,1.03,2.47,0.98,3.71-0.1
		c3.58-3.1,7.23-6.12,10.74-9.3c2.5-2.26,4.89-4.63,6.74-7.48c1.25-1.93,2.15-4.02,2.45-6.33c0.02-0.18-0.02-0.38,0.15-0.51v-0.68
		c-0.06-0.06-0.06-0.12,0-0.18v-1.12c-0.04-0.03-0.04-0.1-0.04-0.14V13.98z"/>
	<path class="st1" d="M45.64,13.95c-0.01-0.07-0.02-0.14,0.07-0.17c0,0.06,0,0.11,0,0.17C45.69,13.99,45.66,13.99,45.64,13.95z"/>
	<path class="st1" d="M45.64,13.95c0.02,0,0.05,0,0.07,0c0,0.06,0,0.11,0,0.17c-0.03,0.04-0.05,0.04-0.07,0
		C45.64,14.06,45.64,14.01,45.64,13.95z"/>
	<path class="st1" d="M45.64,14.12c0.02,0,0.05,0,0.07,0c0,0.06,0,0.11,0,0.17C45.63,14.26,45.63,14.19,45.64,14.12z"/>
	<path class="st1" d="M45.71,15.58c-0.11-0.06-0.1-0.11,0-0.17C45.71,15.47,45.71,15.53,45.71,15.58z"/>
</g>
</svg>
