<svg width="50" height="52" viewBox="0 0 50 52" fill="none" xmlns="http://www.w3.org/2000/svg">
<path d="M36.1998 0.699951C29.2998 0.699951 23.6998 6.00005 23.1998 12.8L15.5999 10.5C15.3999 10.5 15.2999 10.4 15.0999 10.5C14.9999 10.5 1.49988 14.7 1.49988 14.7C0.999878 14.9 0.599854 15.3999 0.599854 15.8999V50.6001C0.599854 51.4001 1.39983 52 2.19983 51.8L15.1998 47.8L28.1998 51.8C28.3998 51.9 28.6999 51.9 28.8999 51.8L42.1998 47.7C42.6998 47.5 43.0999 47.1 43.0999 46.5V26.3999C43.5999 25.7999 44.1998 25.1 44.6998 24.5C47.0998 21.3 49.0998 17.8 49.1998 14C49.1998 6.5 43.3998 0.699951 36.1998 0.699951ZM36.1998 3.1001C42.0998 3.1001 46.7999 7.8001 46.7999 13.6001C46.6999 16.5001 45.0999 19.6 42.7999 22.7C40.7999 25.4 38.2998 27.8999 36.1998 30.3999C34.0998 27.9999 31.5999 25.4 29.5999 22.8C27.2999 19.8 25.5999 16.6 25.5999 13.7C25.5999 7.79995 30.3998 3.1001 36.1998 3.1001ZM36.1998 7.3999C32.6998 7.3999 29.7999 10.3 29.7999 13.8C29.7999 17.3 32.6998 20.2 36.1998 20.2C39.6998 20.2 42.5999 17.3 42.5999 13.8C42.5999 10.3 39.6998 7.3999 36.1998 7.3999ZM36.1998 9.80005C38.3998 9.80005 40.0999 11.5 40.0999 13.7C40.0999 15.9 38.3998 17.6001 36.1998 17.6001C33.9998 17.6001 32.2999 15.9 32.2999 13.7C32.2999 11.6 33.9998 9.80005 36.1998 9.80005ZM14.0999 13.3V45.3999L3.19983 48.8V16.7L14.0999 13.3ZM16.4999 13.3L23.2999 15.3999C23.7999 18.3999 25.3999 21.1999 27.3999 23.8999V48.8L16.4999 45.3999V13.3ZM29.8999 26.8999C31.7999 29.0999 33.6999 31.2 35.2999 33C35.7999 33.5 36.6999 33.5 37.0999 33C38.1999 31.7 39.3998 30.3999 40.6998 28.8999V45.3L29.7999 48.7L29.8999 26.8999Z" fill="#B78B2E"/>
</svg>
