<svg width="59" height="39" viewBox="0 0 59 39" fill="none" xmlns="http://www.w3.org/2000/svg">
<path d="M55.1 0.199951H3.09998C2.29998 0.199951 1.50002 0.500098 0.900024 1.1001C0.300024 1.7001 0 2.50005 0 3.30005V35C0 35.8 0.300024 36.6 0.900024 37.2C1.50002 37.7999 2.29998 38.1001 3.09998 38.1001H55.1C55.9 38.1001 56.7 37.7999 57.3 37.2C57.9 36.6 58.2 35.8 58.2 35V3.30005C58.2 2.50005 57.9 1.7001 57.3 1.1001C56.7 0.500098 55.9 0.199951 55.1 0.199951ZM2.09998 3.30005C2.09998 3.20005 2.09998 3.2001 2.09998 3.1001L22 15.8999L2 34.7L2.09998 3.30005ZM29.1 17.8999L4.59998 2.19995H53.6L29.1 17.8999ZM23.8 17.1001L28.5 20.1001C28.7 20.2001 28.9 20.3 29.1 20.3C29.3 20.3 29.5 20.2001 29.7 20.1001L34.4 17.1001L54.6 36.1001H3.70001L23.8 17.1001ZM36.1 15.8999L56 3.1001C56 3.2001 56 3.20005 56 3.30005V34.7L36.1 15.8999Z" fill="#B78B2E"/>
</svg>
