<svg width="49" height="51" viewBox="0 0 49 51" fill="none" xmlns="http://www.w3.org/2000/svg">
<path d="M36.2999 50.3001C35.8999 50.3001 35.5999 50.3001 35.1999 50.3001C33.0999 50.2001 30.1999 49.7001 27.4999 48.3001C15.3999 41.7001 6.69992 32.2001 1.49992 20.0001C-0.800076 14.6001 -0.400076 9.59998 2.49992 5.39998C3.99992 3.29998 6.29992 1.80013 7.99992 0.800128C9.99992 -0.399872 11.7999 0.399982 12.8999 2.89998C14.0999 5.49998 15.1999 7.70013 16.4999 9.80013C19.0999 14.0001 18.4999 16.6001 14.4999 19.3001C13.9999 19.7001 13.3999 20 12.6999 20.4L12.3999 20.6002C15.1999 28.9002 20.3999 34.6001 28.1999 37.8001C28.3999 37.6001 28.4999 37.4002 28.6999 37.1002C29.3999 36.2002 30.0999 35.3001 30.7999 34.5001C33.1999 32.0001 35.3999 31.8 38.3999 33.9C40.6999 35.4 43.0999 36.9001 45.4999 38.3001L46.3999 38.9C47.5999 39.6 49.1999 41.2 47.4999 44.2C45.1999 48.1 41.2999 50.3001 36.2999 50.3001ZM9.79991 2.20003C9.59991 2.20003 9.39993 2.30008 9.09993 2.50008C7.59993 3.40008 5.49991 4.80008 4.29991 6.50008C1.19991 11.0001 2.09992 15.8002 3.49992 19.1002C8.49992 30.8002 16.8999 40 28.5999 46.4C30.3999 47.4 32.7999 48.0002 35.3999 48.1002C40.0999 48.4002 43.6999 46.6001 45.8999 42.8001C46.6999 41.4001 46.3999 40.8001 45.5999 40.3001L44.6999 39.7C42.2999 38.3 39.8999 36.8001 37.5999 35.3001C36.5999 34.6001 35.7999 34.3001 35.0999 34.3001C34.5999 34.3001 33.7999 34.4 32.5999 35.7C31.8999 36.4 31.2999 37.2002 30.5999 38.1002C30.2999 38.5002 29.8999 39 29.5999 39.4C29.2999 39.8 28.7999 39.9 28.3999 39.7C19.2999 36.2 13.3999 29.8002 10.3999 20.1002C10.2999 19.6002 10.3999 19.1 10.8999 18.9L11.8999 18.3001C12.4999 17.9001 12.9999 17.7001 13.4999 17.3001C16.5999 15.3001 16.8999 13.9 14.8999 10.7C13.5999 8.60003 12.3999 6.20018 11.1999 3.60018C10.6999 3.00018 10.2999 2.20003 9.79991 2.20003Z" fill="#B78B2E"/>
</svg>
